<svg id="Layer_1" data-name="Layer 1" xmlns="http://www.w3.org/2000/svg" xmlns:xlink="http://www.w3.org/1999/xlink" viewBox="0 0 988 2291"><defs><style>.cls-1,.cls-2{fill:none;}.cls-2{stroke:#231f20;stroke-width:0.75px;}.cls-3{fill:#603813;}.cls-4{fill:#e6e6e6;}.cls-5{fill:url(#Ripple);}.cls-6{fill:#333;}.cls-7{fill:#c69c6d;}.cls-8{fill:#fcee96;}.cls-9{fill:#f0d0b4;}.cls-10{fill:#f2f2f2;}.cls-11{fill:#ffa4ac;}.cls-12{fill:#1a1a1a;}.cls-13{fill:#fff;}.cls-14{fill:#ffbfd4;}.cls-15{fill:#ff82d4;}.cls-16{fill:#006837;}.cls-17{fill:#39b54a;}.cls-18{fill:#009245;}.cls-19{fill:#666;}.cls-20{opacity:0.3;fill:url(#linear-gradient);}</style><pattern id="Ripple" data-name="Ripple" width="72" height="72" patternUnits="userSpaceOnUse" viewBox="0 0 72 72"><rect class="cls-1" width="72" height="72"/><path class="cls-2" d="M80.4,64.14s1,4.06-2.92,4S73.54,70,74.35,72.43,74.17,77.05,71,77"/><path class="cls-2" d="M13.35,15.53s3.79-1.74,4.5,2.08,2.61,3.5,4.82,2.22,4.56-.73,5.14,2.38"/><path class="cls-2" d="M66,28.74s-2.6,3.26-5,.17-3.91-1.94-5.31.2-3.74,2.72-5.66.2"/><path class="cls-2" d="M39,29.05s-3.82-1.67-1.45-4.74S38.45,20,36,19.24s-3.59-2.92-1.66-5.42"/><path class="cls-2" d="M41.14,24.82s4.08-.88,2.36-4.36,0-4.36,2.52-4.67,4.1-2.14,2.7-5"/><path class="cls-2" d="M55.12,14.87s4.08-.88,2.36-4.36,0-4.36,2.52-4.66,4.1-2.15,2.7-5"/><path class="cls-2" d="M27.39,34.19s3.68-2,1.07-4.84-1.21-4.19,1.15-5.18S33,21,30.83,18.64"/><path class="cls-2" d="M10.39,22.94s1.29,4-2.58,4.23S4,29.36,5.05,31.7s.21,4.62-2.94,4.84"/><path class="cls-2" d="M7.56,41.16s-2-3.64,1.72-4.64,3.29-2.87,1.85-5-1.09-4.49,2-5.3"/><path class="cls-2" d="M20.44,17s1.35-3.95,4.61-1.83,4.33.52,4.93-2,2.6-3.82,5.26-2.09"/><path class="cls-2" d="M12.33,44.48S10.57,40.7,14.38,40s3.48-2.63,2.19-4.83S15.8,30.57,18.91,30"/><path class="cls-2" d="M24,38.67s-3.43-2.38-.51-4.93,1.68-4-.55-5.28-3-3.55-.58-5.64"/><path class="cls-2" d="M11,59.64s.31-4.16,4-2.94,4.32-.6,4.28-3.15,1.55-4.36,4.55-3.36"/><path class="cls-2" d="M29.5,52.86s-.38,4.15-4,2.87-4.34.52-4.33,3.07-1.64,4.33-4.62,3.27"/><path class="cls-2" d="M19.67,27.31s-4.17.18-3.38-3.62-1.09-4.23-3.62-3.88-4.51-1-3.87-4.14"/><path class="cls-2" d="M32.71,28s-1.49,3.89,2.36,4.35,3.66,2.37,2.54,4.66-.44,4.6,2.7,5"/><path class="cls-2" d="M3.32,45.67s1.92,3.71,4.82,1.13,4.21-1.15,5.17,1.21,3.15,3.39,5.52,1.29"/><path class="cls-2" d="M51,83.38S49.16,79.64,53,78.81,56.36,76.1,55,73.93s-.89-4.54,2.21-5.22"/><path class="cls-2" d="M64.56,10S67,13.34,63.44,14.8s-2.9,3.26-1.21,5.17,1.65,4.32-1.29,5.51"/><path class="cls-2" d="M60,14.27s-4.09.83-2.41,4.33,0,4.36-2.57,4.64-4.12,2.1-2.75,5"/><path class="cls-2" d="M17.08.72s4.16.2,3,3.91.71,4.31,3.26,4.2,4.39,1.44,3.47,4.47"/><path class="cls-2" d="M39.44,15.71s-4-1-2.23-4.42.13-4.36-2.4-4.74-4-2.26-2.55-5"/><path class="cls-2" d="M18,7.9s-4-1.27-4.22,2.6-2.17,3.78-4.52,2.78-4.62-.18-4.82,3"/><path class="cls-2" d="M8.4,64.14s1,4.06-2.92,4S1.54,70,2.35,72.43,2.17,77.05-1,77"/><path class="cls-2" d="M70.32,33.48s-2.27,3.5-4.91.65-4.08-1.56-5.26.7-3.46,3.07-5.62.75"/><path class="cls-2" d="M50.38,1.6s1,4.06-2.92,4-4,1.86-3.14,4.28S44.15,14.5,41,14.45"/><path class="cls-2" d="M43.88,31.8s-1.63-3.83,2.2-4.44,3.57-2.51,2.35-4.75S47.82,18,51,17.53"/><path class="cls-2" d="M74.88,33.61s-4.15-.44-2.81-4.08-.45-4.34-3-4.38-4.3-1.69-3.2-4.66"/><path class="cls-2" d="M62.12,38.22s3.47-2.32,4.77,1.34S70,42.6,72,41s4.39-1.45,5.45,1.53"/><path class="cls-2" d="M71.68,62.73s-.76,4.1-4.29,2.49-4.36.12-4.59,2.66-2,4.16-4.9,2.84"/><path class="cls-2" d="M28.78,44s4.13.55,2.7,4.15.33,4.35,2.88,4.46,4.26,1.81,3.09,4.75"/><path class="cls-2" d="M14.79,43.43s1.2,4,4.54,2,4.34-.36,4.85,2.14,2.46,3.92,5.18,2.29"/><path class="cls-2" d="M1.79,60S3,64,6.33,62s4.34-.36,4.85,2.15,2.46,3.91,5.18,2.29"/><path class="cls-2" d="M37.88,69s4.15-.36,2.88-4,.54-4.33,3.1-4.31,4.33-1.61,3.29-4.6"/><path class="cls-2" d="M34.49,60.09s3.21,2.66.08,5-2,3.87.09,5.31,2.65,3.79.1,5.66"/><path class="cls-2" d="M50.83,63.59s-3.38-2.45-.39-4.93,1.77-4-.42-5.3-2.88-3.62-.44-5.64"/><path class="cls-2" d="M55.94,59.43s2.82-3.07,5,.17,3.76,2.22,5.31.18,3.92-2.45,5.65.2"/><path class="cls-2" d="M40.17,32.48s4.16.24,3,3.94.67,4.31,3.22,4.23,4.38,1.48,3.43,4.5"/><path class="cls-2" d="M31.67,40.41s-.38,4.16,3.45,3.56,4.17,1.31,3.69,3.82.81,4.55,3.94,4.07"/><path class="cls-2" d="M19.47,42.71s1.07-4,4.47-2.16,4.35.21,4.77-2.31,2.33-4,5.1-2.46"/><path class="cls-2" d="M1.21,13.18s4.16-.22,3-3.93S4.92,5,7.47,5.05,11.86,3.59,10.93.57"/><path class="cls-2" d="M35.69,57.65S31.87,56,31.22,59.8s-2.54,3.54-4.78,2.3-4.57-.66-5.1,2.46"/><path class="cls-2" d="M83.79,52.82s-1.58-3.86-4.7-1.55-4.3.78-5-1.65S71.21,46,68.67,47.85"/><path class="cls-2" d="M67.72,48.84s-1,4-4.44,2.21-4.36-.16-4.75,2.36-2.28,4-5.07,2.52"/><path class="cls-2" d="M59.64,60.81s-.13,4.17-3.86,3.11-4.29.78-4.13,3.33-1.37,4.42-4.41,3.55"/><path class="cls-2" d="M51.35,47.94s2-3.65,4.86-1,4.17,1.27,5.19-1.07,3.24-3.3,5.55-1.14"/><path class="cls-2" d="M41.29,59.08s-2-3.68,1.81-4.61,3.33-2.81,1.93-4.95S44,45,47.09,44.25"/><path class="cls-2" d="M62,83.53s-1.29-4,2.58-4.23,3.78-2.19,2.76-4.53-.21-4.62,3-4.84"/><path class="cls-2" d="M46.41,34s4.1-.82,3.89,3.06,1.73,4,4.18,3.28,4.61.34,4.45,3.51"/><path class="cls-2" d="M66.59,12.82s4.13-.53,3.67,3.32,1.45,4.12,3.94,3.56,4.58.65,4.2,3.79"/><path class="cls-2" d="M65.07,53.84s2.41,3.4,4.93.45,4-1.73,5.29.48,3.58,2.93,5.64.52"/><path class="cls-2" d="M45.46,62.83s-3.72,1.88-1.18,4.81S45.39,71.86,43,72.8s-3.42,3.11-1.35,5.5"/><path class="cls-2" d="M28.23,80.31s-3.57-2.15-.81-4.88,1.43-4.13-.87-5.24-3.18-3.36-.93-5.59"/><path class="cls-2" d="M20,65.69s1.2,4-2.68,4.17S13.46,72,14.42,74.32s.1,4.62-3.06,4.76"/><path class="cls-2" d="M2.88,33.61s-4.15-.44-2.81-4.08-.45-4.34-3-4.38-4.3-1.69-3.2-4.66"/><path class="cls-2" d="M-9.88,38.22s3.47-2.32,4.77,1.34S-2,42.6,0,41s4.39-1.45,5.45,1.53"/><path class="cls-2" d="M-.32,62.73s-.76,4.1-4.29,2.49S-9,65.34-9.2,67.88s-2,4.16-4.9,2.84"/><path class="cls-2" d="M-16.06,59.43s2.82-3.07,4.95.17,3.76,2.22,5.31.18,3.92-2.45,5.65.2"/><path class="cls-2" d="M11.79,52.82S10.21,49,7.09,51.27s-4.3.78-5-1.65S-.79,46-3.33,47.85"/><path class="cls-2" d="M-5.41,12.82s4.13-.53,3.67,3.32S-.29,20.26,2.2,19.7s4.58.65,4.2,3.79"/><path class="cls-2" d="M-6.93,53.84s2.41,3.4,4.93.45,4-1.73,5.29.48,3.58,2.93,5.64.52"/><path class="cls-2" d="M80.4-7.86s1,4.06-2.92,4S73.54-2,74.35.43,74.17,5.05,71,5"/><path class="cls-2" d="M51,11.38S49.16,7.64,53,6.81,56.36,4.1,55,1.93s-.89-4.54,2.21-5.22"/><path class="cls-2" d="M8.4-7.86s1,4.06-2.92,4S1.54-2,2.35.43,2.17,5.05-1,5"/><path class="cls-2" d="M34.49-11.91s3.21,2.66.08,5-2,3.87.09,5.31,2.65,3.79.1,5.66"/><path class="cls-2" d="M62,11.53s-1.29-4,2.58-4.23,3.78-2.19,2.76-4.53-.21-4.62,3-4.84"/><path class="cls-2" d="M45.46-9.17s-3.72,1.88-1.18,4.81S45.39-.14,43,.8s-3.42,3.11-1.35,5.5"/><path class="cls-2" d="M28.23,8.31s-3.57-2.15-.81-4.88,1.43-4.13-.87-5.24-3.18-3.36-.93-5.59"/><path class="cls-2" d="M20-6.31s1.2,4-2.68,4.17S13.46,0,14.42,2.32s.1,4.62-3.06,4.76"/></pattern><linearGradient id="linear-gradient" x1="484.93" y1="1187.17" x2="476.97" y2="-67.34" gradientUnits="userSpaceOnUse"><stop offset="0" stop-color="#cce0f4"/><stop offset="0.07" stop-color="#cee2eb"/><stop offset="0.18" stop-color="#d2e7d1"/><stop offset="0.32" stop-color="#d8efa8"/><stop offset="0.49" stop-color="#e2fa6f"/><stop offset="0.56" stop-color="#e6ff55"/><stop offset="0.87" stop-color="#e9d700"/><stop offset="0.99" stop-color="#ff0"/></linearGradient></defs><title>logo</title><rect class="cls-3" x="270.51" y="630.11" width="45.97" height="42.31" transform="translate(-2.21 1) rotate(-0.19)"/><rect class="cls-4" x="340.29" y="484.22" width="297.52" height="144.55"/><rect class="cls-5" x="356.37" y="495.42" width="269.74" height="121.63"/><polygon class="cls-6" points="594.3 946 603.17 943.46 554.07 752.93 545.2 755.48 594.3 946"/><polygon class="cls-6" points="384.11 941.87 375.24 939.33 424.34 748.8 433.21 751.35 384.11 941.87"/><polygon class="cls-7" points="256.74 902.45 248.39 901.95 259.61 696.03 267.95 696.54 256.74 902.45"/><rect class="cls-7" x="712.33" y="698.27" width="7.52" height="216.83"/><rect class="cls-7" x="238.23" y="671.69" width="520.66" height="26.44" transform="translate(5.39 -3.89) rotate(0.45)"/><path class="cls-8" d="M430.9,594.29a264.91,264.91,0,0,0-28.14,24.78,272.12,272.12,0,0,0-25,29.38,19,19,0,0,0-4.79,11.19,19.27,19.27,0,0,0,3.5,12.57l33.37,2c-.83-.44-6.94-3.72-7.81-10.19a12,12,0,0,1,.24-4.4c5.1-4.17,10.42-8.84,15.83-14q5.71-5.49,10.64-10.83L563.86,643c2.57,3.79,5.16,7.77,7.72,11.94q2,3.24,3.84,6.42L568.81,675l30.92,1,1.06-19.36a149,149,0,0,0-9.56-24.41,145.55,145.55,0,0,0-28-38.78Z"/><path class="cls-9" d="M450.8,797.67l-1.36,101.74-3.67,21.31c.54.89,3.46,5.49,8.85,6.41,6.86,1.17,11.6-4.63,12-5.14l-3.78-22.75,15.43-91.1Z"/><path class="cls-9" d="M511.68,801.86l31.23-4.79-8,69.2,1.9,42.12c1.17-.7,5.93-3.36,10.95-1.25a11.51,11.51,0,0,1,3.23,2.11,33.16,33.16,0,0,1-1.25,7.56,31.24,31.24,0,0,1-7.4,12.92,14.56,14.56,0,0,1-8.55,3.3,14.75,14.75,0,0,1-10.64-4.47q-1.4-28.24-2.78-56.49Z"/><path class="cls-10" d="M427,619.65c21.71,2.75,45.1,4.88,70,6,23.36,1.06,45.45,1.12,66.11.49,4.28,24.32,8,50.72,10.76,79,2.87,29.57,4.27,57.36,4.68,83.05a198,198,0,0,1-173.92-3.5A615.12,615.12,0,0,1,427,619.65Z"/><path class="cls-11" d="M542.49,906.28a21.9,21.9,0,0,1,19.27-1,7.16,7.16,0,0,1,4.18,2.65,8.28,8.28,0,0,1,.84,7.93l-23.41,12.34c6.64-7.33,8-15.64,5-19.39C547.87,908.15,546.3,906.5,542.49,906.28Z"/><path class="cls-11" d="M463.14,901.75a14.64,14.64,0,0,1,5.85,4.4,16.89,16.89,0,0,1,3.35,11.46l-5.85,6.17a69.69,69.69,0,0,0-.84-11.46A68.78,68.78,0,0,0,463.14,901.75Z"/><path class="cls-12" d="M447.51,458.45c2.08-2.38,20.47-22.78,48.81-20,25.86,2.54,40,22.44,42.14,25.5l1,4c4,15.54,7.78,32.12,11.09,49.67A763.84,763.84,0,0,1,561.8,604a32.67,32.67,0,0,0-12.23-6c-9.93-2.43-15.71,1.62-27.87,4.49-6,1.43-23,5.42-40.19.21-11.24-3.39-12-7.48-21.26-9.23-12.84-2.42-24.47,2.93-32.23,7.76a369.2,369.2,0,0,1,19.49-142.73Z"/><polygon class="cls-6" points="498.41 691.97 495.91 691.81 495.76 694.45 498.27 694.61 498.41 691.97"/><rect class="cls-13" x="655.57" y="660.12" width="95.4" height="10.59" transform="translate(5.24 -5.49) rotate(0.45)"/><path class="cls-14" d="M752.43,654.39l-103.8-.11.15,19.17,106.12.31v-3.33L657.58,670l.16-10.34,95.19,1Q752.68,657.49,752.43,654.39Z"/><path class="cls-15" d="M733.48,654.8l-74.38-.59a19.25,19.25,0,0,1,.11-15.86l74.38.58a18.09,18.09,0,0,1,1.75,6.47A18.28,18.28,0,0,1,733.48,654.8Z"/><rect class="cls-3" x="263.76" y="628.35" width="58.5" height="6.17" transform="translate(-2.15 1) rotate(-0.19)"/><polygon class="cls-16" points="273.86 628.42 261.88 592.88 279.35 621.81 283.31 628.38 273.86 628.42"/><polygon class="cls-17" points="285.53 589.01 276.92 628.6 289.91 628.36 285.53 589.01"/><polygon class="cls-16" points="294.74 628.35 296.83 596.76 302.65 628.32 294.74 628.35"/><polygon class="cls-16" points="311.43 628.29 320.57 577.1 298.69 628.33 311.43 628.29"/><polygon class="cls-18" points="283.31 628.38 292.4 585.9 298.44 628.64 283.31 628.38"/><polygon class="cls-7" points="315.37 886.51 307.21 888.43 264.63 687.13 272.79 685.21 315.37 886.51"/><polygon class="cls-7" points="771 896.99 762.84 898.91 720.26 697.61 728.42 695.69 771 896.99"/><polygon class="cls-6" points="454.79 499.82 453.2 593.48 463.07 594.09 464.82 450.46 454.79 499.82"/><rect class="cls-10" x="662.88" y="638.21" width="1.67" height="15.87"/><rect class="cls-10" x="728.07" y="639.09" width="1.67" height="15.87"/><rect class="cls-19" x="481.92" y="-6.11" width="20.06" height="60.31"/><path class="cls-19" d="M561.9,90.35H422.33A37.53,37.53,0,0,1,424.84,71a35.15,35.15,0,0,1,14.62-16.74h105.3a41.89,41.89,0,0,1,13,15.86A44.77,44.77,0,0,1,561.9,90.35Z"/><path class="cls-20" d="M752,2293H232Q338.62,1192,445.29,91h96.19Q646.72,1192,752,2293Z"/></svg>
