<svg id="Layer_1" data-name="Layer 1" xmlns="http://www.w3.org/2000/svg" xmlns:xlink="http://www.w3.org/1999/xlink" viewBox="0 0 728.5 1031.81"><defs><style>.cls-1,.cls-15,.cls-17,.cls-2{fill:none;}.cls-2{clip-rule:evenodd;}.cls-3{fill:#a45156;}.cls-4{fill:url(#linear-gradient);}.cls-104,.cls-113,.cls-114,.cls-18,.cls-20,.cls-21,.cls-22,.cls-23,.cls-24,.cls-25,.cls-26,.cls-27,.cls-28,.cls-29,.cls-30,.cls-31,.cls-32,.cls-33,.cls-34,.cls-35,.cls-36,.cls-37,.cls-38,.cls-39,.cls-40,.cls-41,.cls-42,.cls-43,.cls-44,.cls-45,.cls-46,.cls-47,.cls-48,.cls-49,.cls-5,.cls-50,.cls-51,.cls-52,.cls-53,.cls-54,.cls-55,.cls-56,.cls-57,.cls-58,.cls-59,.cls-60,.cls-61,.cls-62,.cls-63,.cls-64,.cls-65,.cls-70,.cls-72,.cls-99{fill:#fff;}.cls-6{fill:url(#linear-gradient-2);}.cls-7{fill:url(#linear-gradient-3);}.cls-8{fill:url(#linear-gradient-4);}.cls-9{fill:url(#linear-gradient-5);}.cls-10{fill:#1b75bc;}.cls-11,.cls-66,.cls-67{fill:#231f20;}.cls-12{fill:url(#linear-gradient-6);}.cls-13{fill:url(#linear-gradient-7);}.cls-14{clip-path:url(#clip-path);}.cls-15{stroke:#000;stroke-width:0.28px;}.cls-15,.cls-17{stroke-miterlimit:10;}.cls-16{clip-path:url(#clip-path-2);}.cls-17{stroke:#fff;stroke-width:1.47px;}.cls-18{fill-rule:evenodd;}.cls-19{clip-path:url(#clip-path-3);}.cls-20{font-size:4.38px;}.cls-20,.cls-21,.cls-22,.cls-23,.cls-24,.cls-25,.cls-26,.cls-27,.cls-28,.cls-29,.cls-30,.cls-31,.cls-32,.cls-33,.cls-34,.cls-35,.cls-36,.cls-37,.cls-38,.cls-39,.cls-40,.cls-41,.cls-42,.cls-43,.cls-44,.cls-45,.cls-46,.cls-47,.cls-48,.cls-49,.cls-50,.cls-51,.cls-52,.cls-53,.cls-54,.cls-55,.cls-56,.cls-57,.cls-58,.cls-59,.cls-60,.cls-61,.cls-62,.cls-63,.cls-64,.cls-65,.cls-66,.cls-67{font-family:AlternateGothicNo2BT-Regular, AlternateGothicNo2BT Regular;}.cls-21{font-size:4.38px;}.cls-22{font-size:4.37px;}.cls-23{font-size:4.37px;}.cls-24{font-size:4.36px;}.cls-25{font-size:4.35px;}.cls-26{font-size:4.35px;}.cls-27{font-size:4.35px;}.cls-28{font-size:4.35px;}.cls-29{font-size:4.36px;}.cls-30{font-size:4.36px;}.cls-31{font-size:4.37px;}.cls-32{font-size:4.38px;}.cls-33{font-size:4.38px;}.cls-34{font-size:4.46px;}.cls-35{font-size:4.46px;}.cls-36{font-size:4.45px;}.cls-37{font-size:4.45px;}.cls-38{font-size:4.44px;}.cls-39{font-size:4.44px;}.cls-40{font-size:4.43px;}.cls-41{font-size:4.4px;}.cls-42{font-size:4.39px;}.cls-43{font-size:4.38px;}.cls-44{font-size:4.37px;}.cls-45{font-size:4.37px;}.cls-46{font-size:4.36px;}.cls-47{font-size:4.36px;}.cls-48{font-size:4.35px;}.cls-49{font-size:4.35px;}.cls-50{font-size:4.36px;}.cls-51{font-size:4.36px;}.cls-52{font-size:4.37px;}.cls-53{font-size:4.37px;}.cls-54{font-size:4.38px;}.cls-55{font-size:4.39px;}.cls-56{font-size:4.4px;}.cls-57{font-size:4.41px;}.cls-58{font-size:4.42px;}.cls-59{font-size:4.43px;}.cls-60{font-size:4.44px;}.cls-61{font-size:4.44px;}.cls-62{font-size:4.45px;}.cls-63{font-size:4.45px;}.cls-64{font-size:4.46px;}.cls-65{font-size:4.46px;}.cls-66{font-size:22.96px;}.cls-67{font-size:21.75px;}.cls-68{clip-path:url(#clip-path-4);}.cls-69{clip-path:url(#clip-path-5);}.cls-70{font-size:4.35px;font-family:Futura-Bold, Futura;font-weight:700;}.cls-71{clip-path:url(#clip-path-6);}.cls-72{font-size:8.27px;}.cls-104,.cls-72,.cls-99{font-family:LemonMilk, "Lemon/Milk";}.cls-73{letter-spacing:-0.05em;}.cls-74{letter-spacing:-0.06em;}.cls-75{letter-spacing:-0.02em;}.cls-76{letter-spacing:0em;}.cls-77{letter-spacing:-0.16em;}.cls-78{letter-spacing:-0.08em;}.cls-79{letter-spacing:-0.1em;}.cls-80{letter-spacing:0em;}.cls-81{letter-spacing:-0.13em;}.cls-82{letter-spacing:-0.15em;}.cls-83{letter-spacing:-0.06em;}.cls-84{letter-spacing:-0.15em;}.cls-85{letter-spacing:0em;}.cls-86{letter-spacing:-0.07em;}.cls-87{letter-spacing:-0.16em;}.cls-88{letter-spacing:-0.12em;}.cls-89{letter-spacing:-0.15em;}.cls-90{letter-spacing:-0.02em;}.cls-91{letter-spacing:-0.12em;}.cls-92{letter-spacing:-0.07em;}.cls-93{letter-spacing:-0.07em;}.cls-94{letter-spacing:-0.08em;}.cls-95{letter-spacing:-0.02em;}.cls-96{letter-spacing:-0.12em;}.cls-97{letter-spacing:-0.05em;}.cls-98{letter-spacing:0em;}.cls-99{font-size:37.76px;}.cls-100{letter-spacing:-0.05em;}.cls-101{letter-spacing:-0.06em;}.cls-102{letter-spacing:-0.16em;}.cls-103{letter-spacing:-0.1em;}.cls-104{font-size:9px;}.cls-105{letter-spacing:-0.11em;}.cls-106{letter-spacing:0em;}.cls-107{letter-spacing:-0.07em;}.cls-108{letter-spacing:-0.05em;}.cls-109{letter-spacing:-0.06em;}.cls-110{letter-spacing:-0.15em;}.cls-111{letter-spacing:-0.07em;}.cls-112{letter-spacing:-0.07em;}.cls-113{font-size:88px;}.cls-113,.cls-114{font-family:FragmentCoreRom, Fragment Core;}.cls-114{font-size:62.67px;}.cls-115{letter-spacing:-0.02em;}</style><linearGradient id="linear-gradient" x1="520.32" y1="869.47" x2="369.55" y2="608.32" gradientUnits="userSpaceOnUse"><stop offset="0" stop-color="#9b8579"/><stop offset="1" stop-color="#c2b59b"/></linearGradient><linearGradient id="linear-gradient-2" x1="595.13" y1="887.02" x2="496.71" y2="716.56" xlink:href="#linear-gradient"/><linearGradient id="linear-gradient-3" x1="697.88" y1="837.03" x2="432.4" y2="837.03" gradientUnits="userSpaceOnUse"><stop offset="0" stop-color="#27aae1"/><stop offset="1" stop-color="#95d0dd"/></linearGradient><linearGradient id="linear-gradient-4" x1="362.5" y1="356.36" x2="138.51" y2="744.33" xlink:href="#linear-gradient-3"/><linearGradient id="linear-gradient-5" x1="294.19" y1="689.19" x2="200.69" y2="851.14" xlink:href="#linear-gradient-3"/><linearGradient id="linear-gradient-6" x1="438.59" y1="630.93" x2="598.03" y2="630.93" xlink:href="#linear-gradient"/><linearGradient id="linear-gradient-7" x1="438.59" y1="612.29" x2="533.7" y2="612.29" xlink:href="#linear-gradient"/><clipPath id="clip-path"><rect class="cls-1" x="60.96" y="902.5" width="71.36" height="69.61"/></clipPath><clipPath id="clip-path-2"><path class="cls-2" d="M129.91,937.68c0,17.06-14.48,30.89-32.35,30.89S65.2,954.74,65.2,937.68,79.69,906.8,97.56,906.8s32.35,13.83,32.35,30.88"/></clipPath><clipPath id="clip-path-3"><path class="cls-2" d="M123.42,937.63c0,14-11.57,25.28-25.85,25.28s-25.85-11.32-25.85-25.28,11.58-25.29,25.85-25.29,25.85,11.32,25.85,25.29"/></clipPath><clipPath id="clip-path-4"><rect class="cls-1" x="84.87" y="911.85" width="25.37" height="51.06"/></clipPath><clipPath id="clip-path-5"><rect class="cls-1" x="86.94" y="912.03" width="20.56" height="93.11"/></clipPath><clipPath id="clip-path-6"><polyline class="cls-1" points="127.68 977.55 127.68 899.69 206.6 899.69 206.6 977.55"/></clipPath></defs><title>Artboard 1</title><rect class="cls-3" width="728.5" height="1031.81"/><polygon class="cls-4" points="689.92 771.55 469.97 718.43 199.95 706.24 441.59 771.55 689.92 771.55"/><polygon class="cls-5" points="404.92 731.12 472.26 731.12 508.71 738.9 418.47 738.9 404.92 731.12"/><rect class="cls-6" x="404.92" y="769.55" width="282" height="64.47"/><rect class="cls-7" x="432.4" y="834.47" width="265.47" height="5.12"/><polygon class="cls-8" points="59.58 333.06 438.59 400.29 438.59 772.55 59.58 698.76 59.58 333.06"/><path class="cls-9" d="M438.59,840.59c-1.17-1-19.59-16.65-16.37-40,2.25-16.37,13.64-25.85,16.37-28l-379-73.79c-2.87,2.59-14.06,13.3-15.74,30.86-2.2,23,13.81,38.27,15.74,40Z"/><polygon class="cls-10" points="59.58 333.06 59.58 383.52 103.21 340.8 59.58 333.06"/><polygon class="cls-10" points="398.36 393.15 438.59 452.02 438.59 400.29 398.36 393.15"/><polygon class="cls-11" points="459.81 729.7 473 729.7 483.48 733.12 459.81 729.7"/><polygon class="cls-11" points="497.33 735.01 491.32 738.9 508.71 738.9 497.33 735.01"/><rect class="cls-5" x="386.9" y="218.76" width="116.08" height="131.57" transform="translate(40.91 -55.6) rotate(7.49)"/><rect class="cls-11" x="396.71" y="227.53" width="99.45" height="99.45" transform="translate(39.97 -55.85) rotate(7.49)"/><rect class="cls-5" x="99.98" y="191.23" width="171.51" height="186.63" transform="translate(-100.34 101.18) rotate(-24.21)"/><rect class="cls-11" x="108.67" y="204.09" width="146.93" height="141.06" transform="translate(-96.59 98.83) rotate(-24.21)"/><path class="cls-12" d="M438.59,489.31a973.3,973.3,0,0,1,113.92,16.2c15.73,3.19,30.91,6.69,45.52,10.4A590,590,0,0,0,438.59,772.55Z"/><rect class="cls-5" x="511.42" y="423.52" width="116.08" height="131.57" transform="translate(-131.83 221.16) rotate(-19.75)"/><rect class="cls-11" x="517.73" y="432.42" width="99.45" height="99.45" transform="translate(-129.53 220.06) rotate(-19.75)"/><path class="cls-13" d="M438.59,772.55A783.84,783.84,0,0,1,533.7,482.14L438.59,452Z"/><path class="cls-5" d="M500,751.38a177.3,177.3,0,0,0,35.89-39.57,174.85,174.85,0,0,0,15.27-28.46h97.18A186.17,186.17,0,0,1,598,759.71Z"/><path class="cls-11" d="M555.14,694.28a105.3,105.3,0,0,1-36.83,50.92l66.86,4.57a115.38,115.38,0,0,0,36.56-55.49Z"/><path class="cls-11" d="M67.2,764.06V776h9.7V764.06h5.82v29.72H76.9V781.87H67.2v11.91H61.38V764.06Z"/><path class="cls-11" d="M98.48,763.46l13.25,30.32h-6.32l-2-4.52H93.51l-2,4.52h-6.3ZM101.14,784l-2.65-6.29L95.81,784Z"/><path class="cls-11" d="M114.25,784.86v-20.8h10.19a9.69,9.69,0,0,1,7.2,3.05,10.11,10.11,0,0,1,3,7.37,9.9,9.9,0,0,1-3,7.33,9.75,9.75,0,0,1-7.2,3.05h-4.36v8.92h-5.83ZM124.44,770h-4.36v9l4.36,0a4.49,4.49,0,0,0,0-9Z"/><path class="cls-11" d="M137.17,784.86v-20.8h10.19a9.69,9.69,0,0,1,7.2,3.05,10.11,10.11,0,0,1,3,7.37,9.9,9.9,0,0,1-3,7.33,9.75,9.75,0,0,1-7.2,3.05H143v8.92h-5.84ZM147.36,770H143v9l4.35,0a4.49,4.49,0,0,0,0-9Z"/><path class="cls-11" d="M160.09,764.06h5.84v29.72h-5.84Z"/><path class="cls-11" d="M187,764v6H175.36v6h8.75v6h-8.75v6H187v5.93h-17.5V764Z"/><path class="cls-11" d="M189.55,764.06H199a10.51,10.51,0,0,1,7.6,3,8.46,8.46,0,0,1,2.81,6.74v.78a9.74,9.74,0,0,1-1.84,5.66,6.59,6.59,0,0,1-3.47,2.74l6.75,10.77h-7.13l-8.34-13.15v13.15h-5.83Zm13.87,10a4.07,4.07,0,0,0-1.16-2.86,5.35,5.35,0,0,0-3.6-1.18h-3.28v8.2h2.26v0h1.94A4,4,0,0,0,203.42,774Z"/><path class="cls-11" d="M213.19,790.92a3.73,3.73,0,1,1,3.73,3.8A3.81,3.81,0,0,1,213.19,790.92Z"/><path class="cls-11" d="M67.2,809.38v11.89h9.7V809.38h5.82v29.71H76.9v-11.9H67.2v11.9H61.38V809.38Z"/><path class="cls-11" d="M103.82,809.31v6H92.16v6h8.75v6H92.16v6h11.66v5.93H86.32V809.31Z"/><path class="cls-11" d="M118.5,808.77l13.25,30.32h-6.32l-2-4.51h-9.94l-2,4.51h-6.3Zm2.66,20.54L118.52,823l-2.69,6.29Z"/><path class="cls-11" d="M140.11,809.38v23.78h11.66v5.93h-17.5V809.38Z"/><path class="cls-11" d="M167.94,809.38v5.92h-7.13v23.79H155V815.3h-7.15v-5.92Z"/><path class="cls-11" d="M176.28,809.38v11.89H186V809.38h5.81v29.71H186v-11.9h-9.71v11.9h-5.81V809.38Z"/><path class="cls-11" d="M195.4,809.38h5.84v29.71H195.4Z"/><path class="cls-11" d="M222.34,809.31v6H210.67v6h8.75v6h-8.75v6h11.67v5.93h-17.5V809.31Z"/><path class="cls-11" d="M224.86,809.38h9.47a10.54,10.54,0,0,1,7.6,3,8.47,8.47,0,0,1,2.81,6.75v.77a9.72,9.72,0,0,1-1.84,5.66,6.65,6.65,0,0,1-3.47,2.75l6.75,10.76h-7.13L230.71,826v13.14h-5.83Zm13.87,10a4,4,0,0,0-1.16-2.85,5.3,5.3,0,0,0-3.6-1.18h-3.28v8.2h2.25v0h1.95A4,4,0,0,0,238.73,819.33Z"/><path class="cls-11" d="M248.5,836.24a3.73,3.73,0,1,1,3.73,3.8A3.81,3.81,0,0,1,248.5,836.24Z"/><path class="cls-11" d="M67.2,854.7v11.89h9.7V854.7h5.82v29.71H76.9V872.5H67.2v11.91H61.38V854.7Z"/><path class="cls-11" d="M86.32,854.7h5.84v29.71H86.32Z"/><path class="cls-11" d="M109.41,854.51a14.66,14.66,0,0,1,10.42,4.41l-4.16,4.26a8.49,8.49,0,0,0-6.23-2.68,8.36,8.36,0,0,0-6.23,2.68,9.19,9.19,0,0,0,0,12.79,8.32,8.32,0,0,0,6.23,2.65,8.81,8.81,0,0,0,8-5.19h-8.28v-5.7H124c.41,5.55-1.37,9.59-4.23,12.5a14.1,14.1,0,0,1-10.41,4.4A13.9,13.9,0,0,1,99,880.23a14.64,14.64,0,0,1-4.32-10.66A14.81,14.81,0,0,1,99,858.9a13.91,13.91,0,0,1,10.39-4.44Z"/><path class="cls-11" d="M132.42,854.7v11.89h9.7V854.7h5.82v29.71h-5.82V872.5h-9.7v11.91H126.6V854.7Z"/><path class="cls-11" d="M169,854.62v6H157.37v6h8.75v5.95h-8.75v6H169v5.94h-17.5V854.62Z"/><path class="cls-11" d="M171.56,854.7H181a10.53,10.53,0,0,1,7.6,3,8.47,8.47,0,0,1,2.81,6.75v.77a9.72,9.72,0,0,1-1.84,5.66,6.66,6.66,0,0,1-3.47,2.75l6.75,10.76h-7.13l-8.34-13.14v13.14h-5.83Zm13.87,9.95a4.08,4.08,0,0,0-1.16-2.86,5.35,5.35,0,0,0-3.6-1.17H177.4v8.2h2.25v0h1.94A4,4,0,0,0,185.43,864.65Z"/><path class="cls-11" d="M206.19,875.49V854.7h10.19a9.68,9.68,0,0,1,7.2,3,10.12,10.12,0,0,1,3,7.37,9.93,9.93,0,0,1-3,7.34,9.74,9.74,0,0,1-7.2,3H212v8.92h-5.83Zm10.19-14.87H212v9l4.36,0a4.49,4.49,0,0,0,0-9Z"/><path class="cls-11" d="M246.61,854.62v6H234.94v6h8.75v5.95h-8.75v6h11.67v5.94h-17.5V854.62Z"/><path class="cls-11" d="M249.13,854.7h9.47a10.53,10.53,0,0,1,7.6,3,8.47,8.47,0,0,1,2.81,6.75v.77a9.72,9.72,0,0,1-1.84,5.66,6.66,6.66,0,0,1-3.47,2.75l6.75,10.76h-7.13L255,871.27v13.14h-5.83ZM263,864.65a4.12,4.12,0,0,0-1.15-2.86,5.4,5.4,0,0,0-3.61-1.17H255v8.2h2.25v0h1.94A4,4,0,0,0,263,864.65Z"/><path class="cls-11" d="M290.46,854.62v6H278.79v6h8.75v5.95h-8.75v11.93H273V854.62Z"/><path class="cls-11" d="M316.42,858.9a15.27,15.27,0,0,1,0,21.33,14.53,14.53,0,0,1-20.81,0,15.3,15.3,0,0,1,0-21.33,14.41,14.41,0,0,1,20.81,0Zm-16.65,4.24a8.91,8.91,0,0,0-2.6,6.4,8.82,8.82,0,0,0,2.6,6.39,8.68,8.68,0,0,0,12.47,0,9.14,9.14,0,0,0,0-12.79,8.66,8.66,0,0,0-12.47,0Z"/><path class="cls-11" d="M323.25,854.7h9.47a10.56,10.56,0,0,1,7.6,3,8.49,8.49,0,0,1,2.8,6.75v.77a9.78,9.78,0,0,1-1.83,5.66,6.68,6.68,0,0,1-3.48,2.75l6.75,10.76h-7.13l-8.33-13.14v13.14h-5.84Zm13.86,9.95a4.07,4.07,0,0,0-1.15-2.86,5.39,5.39,0,0,0-3.6-1.17h-3.28v8.2h2.25v0h1.94A4,4,0,0,0,337.11,864.65Z"/><path class="cls-11" d="M361.29,874l14.21-20v30.41h-5.83V872.1l-8.38,11.83L352.9,872.1v12.31h-5.83V854Z"/><path class="cls-11" d="M379.1,854.7h5.83v29.71H379.1Z"/><path class="cls-11" d="M406,871.12v-16.5h5.85V885L394.37,868v16.5h-5.83V854.07Z"/><path class="cls-11" d="M429.12,854.51a14.71,14.71,0,0,1,10.43,4.41l-4.16,4.26a8.52,8.52,0,0,0-6.23-2.68,8.33,8.33,0,0,0-6.23,2.68,9.16,9.16,0,0,0,0,12.79,8.31,8.31,0,0,0,6.23,2.65,8.82,8.82,0,0,0,8-5.19h-8.29v-5.7h14.91c.42,5.55-1.36,9.59-4.23,12.5a14.07,14.07,0,0,1-10.41,4.4,13.91,13.91,0,0,1-10.39-4.4,14.64,14.64,0,0,1-4.32-10.66,14.81,14.81,0,0,1,4.32-10.67,13.91,13.91,0,0,1,10.39-4.44Z"/><path class="cls-11" d="M446.14,881.55a3.73,3.73,0,1,1,3.72,3.8A3.8,3.8,0,0,1,446.14,881.55Z"/><g class="cls-14"><path d="M132,937.62c0,.53-1.15,1-1.17,1.54s1.07,1.13,1,1.65-1.24.91-1.32,1.43.95,1.22.85,1.73-1.32.79-1.45,1.3.83,1.3.68,1.8-1.4.67-1.58,1.16.7,1.38.5,1.86-1.46.53-1.68,1,.56,1.43.31,1.89-1.5.4-1.77.85.41,1.48.12,1.92-1.53.25-1.85.68.27,1.5-.06,1.92-1.56.11-1.91.5.12,1.53-.25,1.91-1.56,0-2,.33,0,1.53-.43,1.87-1.55-.17-2,.15-.18,1.52-.62,1.82-1.52-.31-2,0-.32,1.5-.79,1.76-1.48-.45-2-.21-.46,1.46-1,1.68-1.44-.59-1.94-.4-.61,1.41-1.12,1.58-1.37-.72-1.89-.57-.75,1.35-1.27,1.47-1.29-.84-1.83-.74-.87,1.27-1.41,1.34-1.2-1-1.74-.91-1,1.19-1.54,1.21-1.1-1.06-1.64-1.06-1.11,1.09-1.65,1.06-1-1.16-1.54-1.21-1.21,1-1.74.91-.88-1.24-1.41-1.34-1.3.87-1.82.74-.76-1.32-1.28-1.47-1.38.74-1.89.57-.62-1.38-1.12-1.58-1.44.61-1.93.4-.48-1.44-1-1.68-1.5.47-2,.21-.34-1.47-.79-1.76-1.54.34-2,0-.19-1.5-.61-1.82-1.57.19-2-.15,0-1.51-.43-1.87-1.58,0-2-.33.11-1.51-.25-1.91-1.57-.09-1.91-.51.25-1.49-.06-1.91-1.56-.24-1.85-.68.4-1.47.13-1.92-1.53-.38-1.78-.85.54-1.41.31-1.89-1.48-.52-1.68-1,.68-1.36.5-1.86-1.42-.65-1.58-1.16.81-1.29.68-1.8-1.35-.78-1.45-1.3.93-1.21.85-1.73S63,941.33,63,940.81s1-1.12,1-1.65-1.18-1-1.18-1.54,1.15-1,1.18-1.54-1.08-1.13-1-1.65,1.24-.91,1.31-1.43-1-1.22-.85-1.73,1.33-.79,1.45-1.3-.83-1.3-.68-1.8,1.4-.67,1.58-1.16-.7-1.37-.5-1.86,1.46-.53,1.69-1-.57-1.43-.32-1.89,1.51-.4,1.78-.85-.42-1.48-.13-1.91,1.54-.26,1.85-.69-.27-1.5.06-1.91,1.56-.12,1.91-.51-.12-1.53.25-1.9,1.56,0,2-.34,0-1.52.43-1.87,1.55.18,2-.15.17-1.52.61-1.82,1.53.31,2,0,.32-1.5.79-1.76,1.49.45,2,.21.47-1.46,1-1.68,1.43.59,1.93.4.61-1.41,1.13-1.58,1.36.72,1.88.57.75-1.35,1.28-1.47,1.29.84,1.82.74.87-1.27,1.41-1.34,1.2,1,1.74.91,1-1.19,1.54-1.21,1.1,1.06,1.65,1.06,1.11-1.09,1.64-1.06,1,1.16,1.54,1.21,1.21-1,1.74-.91.89,1.25,1.41,1.34,1.3-.86,1.83-.74.75,1.32,1.27,1.47,1.38-.74,1.89-.57.62,1.38,1.12,1.58,1.45-.61,1.94-.39.48,1.43,1,1.67,1.5-.47,2-.21.34,1.48.79,1.76,1.54-.33,2,0,.19,1.5.62,1.82,1.56-.19,2,.15,0,1.51.43,1.88,1.58,0,2,.33-.1,1.5.25,1.9,1.58.1,1.91.51-.25,1.49.06,1.92,1.56.24,1.85.68-.39,1.46-.12,1.91,1.52.38,1.77.85-.54,1.42-.31,1.89,1.48.53,1.68,1-.67,1.36-.5,1.86,1.43.66,1.58,1.16-.81,1.29-.68,1.8,1.35.79,1.45,1.3-.93,1.21-.85,1.73,1.27.91,1.32,1.43-1,1.12-1,1.65,1.17,1,1.17,1.54"/><path class="cls-15" d="M132,937.62c0,.53-1.15,1-1.17,1.54s1.07,1.13,1,1.65-1.24.91-1.32,1.43.95,1.22.85,1.73-1.32.79-1.45,1.3.83,1.3.68,1.8-1.4.67-1.58,1.16.7,1.38.5,1.86-1.46.53-1.68,1,.56,1.43.31,1.89-1.5.4-1.77.85.41,1.48.12,1.92-1.53.25-1.85.68.27,1.5-.06,1.92-1.56.11-1.91.5.12,1.53-.25,1.91-1.56,0-2,.33,0,1.53-.43,1.87-1.55-.17-2,.15-.18,1.52-.62,1.82-1.52-.31-2,0-.32,1.5-.79,1.76-1.48-.45-2-.21-.46,1.46-1,1.68-1.44-.59-1.94-.4-.61,1.41-1.12,1.58-1.37-.72-1.89-.57-.75,1.35-1.27,1.47-1.29-.84-1.83-.74-.87,1.27-1.41,1.34-1.2-1-1.74-.91-1,1.19-1.54,1.21-1.1-1.06-1.64-1.06-1.11,1.09-1.65,1.06-1-1.16-1.54-1.21-1.21,1-1.74.91-.88-1.24-1.41-1.34-1.3.87-1.82.74-.76-1.32-1.28-1.47-1.38.74-1.89.57-.62-1.38-1.12-1.58-1.44.61-1.93.4-.48-1.44-1-1.68-1.5.47-2,.21-.34-1.47-.79-1.76-1.54.34-2,0-.19-1.5-.61-1.82-1.57.19-2-.15,0-1.51-.43-1.87-1.58,0-2-.33.11-1.51-.25-1.91-1.57-.09-1.91-.51.25-1.49-.06-1.91-1.56-.24-1.85-.68.4-1.47.13-1.92-1.53-.38-1.78-.85.54-1.41.31-1.89-1.48-.52-1.68-1,.68-1.36.5-1.86-1.42-.65-1.58-1.16.81-1.29.68-1.8-1.35-.78-1.45-1.3.93-1.21.85-1.73S63,941.33,63,940.81s1-1.12,1-1.65-1.18-1-1.18-1.54,1.15-1,1.18-1.54-1.08-1.13-1-1.65,1.24-.91,1.31-1.43-1-1.22-.85-1.73,1.33-.79,1.45-1.3-.83-1.3-.68-1.8,1.4-.67,1.58-1.16-.7-1.37-.5-1.86,1.46-.53,1.69-1-.57-1.43-.32-1.89,1.51-.4,1.78-.85-.42-1.48-.13-1.91,1.54-.26,1.85-.69-.27-1.5.06-1.91,1.56-.12,1.91-.51-.12-1.53.25-1.9,1.56,0,2-.34,0-1.52.43-1.87,1.55.18,2-.15.17-1.52.61-1.82,1.53.31,2,0,.32-1.5.79-1.76,1.49.45,2,.21.47-1.46,1-1.68,1.43.59,1.93.4.61-1.41,1.13-1.58,1.36.72,1.88.57.75-1.35,1.28-1.47,1.29.84,1.82.74.87-1.27,1.41-1.34,1.2,1,1.74.91,1-1.19,1.54-1.21,1.1,1.06,1.65,1.06,1.11-1.09,1.64-1.06,1,1.16,1.54,1.21,1.21-1,1.74-.91.89,1.25,1.41,1.34,1.3-.86,1.83-.74.75,1.32,1.27,1.47,1.38-.74,1.89-.57.62,1.38,1.12,1.58,1.45-.61,1.94-.39.48,1.43,1,1.67,1.5-.47,2-.21.34,1.48.79,1.76,1.54-.33,2,0,.19,1.5.62,1.82,1.56-.19,2,.15,0,1.51.43,1.88,1.58,0,2,.33-.1,1.5.25,1.9,1.58.1,1.91.51-.25,1.49.06,1.92,1.56.24,1.85.68-.39,1.46-.12,1.91,1.52.38,1.77.85-.54,1.42-.31,1.89,1.48.53,1.68,1-.67,1.36-.5,1.86,1.43.66,1.58,1.16-.81,1.29-.68,1.8,1.35.79,1.45,1.3-.93,1.21-.85,1.73,1.27.91,1.32,1.43-1,1.12-1,1.65S132,937.09,132,937.62Z"/><g class="cls-16"><ellipse class="cls-17" cx="97.56" cy="937.68" rx="32.36" ry="30.89"/></g><path class="cls-18" d="M122.68,937.63c0,13.56-11.24,24.56-25.11,24.56s-25.1-11-25.1-24.56,11.24-24.57,25.1-24.57,25.11,11,25.11,24.57"/><g class="cls-19"><ellipse class="cls-17" cx="97.57" cy="937.63" rx="25.85" ry="25.29"/></g><text class="cls-20" transform="matrix(0.86, -0.53, 0.54, 0.84, 82.38, 915.7)">L</text><text class="cls-21" transform="matrix(0.89, -0.48, 0.49, 0.87, 84.04, 914.69)">I</text><text class="cls-22" transform="matrix(0.92, -0.42, 0.43, 0.9, 85.29, 914.03)">F</text><text class="cls-23" transform="matrix(0.95, -0.36, 0.37, 0.93, 87.05, 913.24)">E</text><text class="cls-24" transform="matrix(1, -0.23, 0.24, 0.97, 90.3, 912.14)">O</text><text class="cls-25" transform="matrix(1.01, -0.16, 0.16, 0.99, 92.57, 911.63)">F</text><text class="cls-26" transform="matrix(1.02, -0.03, 0.03, 1, 95.82, 911.22)">A</text><text class="cls-27" transform="matrix(1.02, 0.11, -0.11, 0.99, 99.34, 911.21)">W</text><text class="cls-28" transform="matrix(1.01, 0.19, -0.19, 0.98, 102.21, 911.56)">I</text><text class="cls-29" transform="matrix(0.99, 0.25, -0.25, 0.97, 103.62, 911.82)">L</text><text class="cls-30" transform="matrix(0.97, 0.32, -0.33, 0.94, 105.51, 912.3)">D</text><text class="cls-31" transform="matrix(0.94, 0.4, -0.41, 0.91, 107.75, 913.06)">C</text><text class="cls-32" transform="matrix(0.9, 0.47, -0.48, 0.88, 109.84, 913.98)">A</text><text class="cls-33" transform="matrix(0.86, 0.53, -0.54, 0.84, 111.64, 914.94)">T</text><text class="cls-34" transform="matrix(0.08, 0.97, -1, 0.08, 67.42, 939)">H</text><text class="cls-35" transform="matrix(0.16, 0.96, -0.99, 0.16, 67.66, 941.55)">A</text><text class="cls-36" transform="matrix(0.24, 0.95, -0.97, 0.24, 68.08, 943.85)">P</text><text class="cls-37" transform="matrix(0.32, 0.93, -0.95, 0.31, 68.71, 946.18)">P</text><text class="cls-38" transform="matrix(0.39, 0.9, -0.93, 0.38, 69.54, 948.46)">I</text><text class="cls-39" transform="matrix(0.45, 0.88, -0.9, 0.44, 70.18, 949.94)">E</text><text class="cls-40" transform="matrix(0.52, 0.84, -0.86, 0.51, 71.23, 951.95)">R</text><text class="cls-41" transform="matrix(0.77, 0.64, -0.66, 0.75, 77.2, 959.27)">H</text><text class="cls-42" transform="matrix(0.82, 0.58, -0.59, 0.8, 79.21, 960.9)">E</text><text class="cls-43" transform="matrix(0.87, 0.52, -0.53, 0.85, 81.1, 962.21)">A</text><text class="cls-44" transform="matrix(0.91, 0.45, -0.46, 0.89, 83.16, 963.39)">L</text><text class="cls-45" transform="matrix(0.94, 0.39, -0.4, 0.91, 84.96, 964.27)">T</text><text class="cls-46" transform="matrix(0.97, 0.32, -0.33, 0.94, 86.91, 965.07)">H</text><text class="cls-47" transform="matrix(0.99, 0.25, -0.26, 0.97, 89.4, 965.86)">I</text><text class="cls-48" transform="matrix(1.01, 0.19, -0.2, 0.98, 91, 966.26)">E</text><text class="cls-49" transform="matrix(1.02, 0.11, -0.11, 0.99, 93.28, 966.66)">R</text><text class="cls-50" transform="matrix(1, -0.23, 0.24, 0.97, 103.63, 966.37)">H</text><text class="cls-51" transform="matrix(0.98, -0.3, 0.31, 0.95, 106.16, 965.74)">I</text><text class="cls-52" transform="matrix(0.95, -0.36, 0.37, 0.93, 107.73, 965.25)">G</text><text class="cls-53" transform="matrix(0.91, -0.44, 0.45, 0.89, 110.09, 964.33)">H</text><text class="cls-54" transform="matrix(0.87, -0.51, 0.52, 0.85, 112.42, 963.16)">E</text><text class="cls-55" transform="matrix(0.83, -0.58, 0.59, 0.81, 114.39, 961.99)">R</text><text class="cls-56" transform="matrix(0.74, -0.68, 0.69, 0.72, 117.63, 959.54)">P</text><text class="cls-57" transform="matrix(0.68, -0.73, 0.75, 0.66, 119.42, 957.87)">E</text><text class="cls-58" transform="matrix(0.62, -0.78, 0.8, 0.6, 120.95, 956.19)">R</text><text class="cls-59" transform="matrix(0.55, -0.82, 0.84, 0.54, 122.46, 954.2)">F</text><text class="cls-60" transform="matrix(0.48, -0.86, 0.88, 0.47, 123.62, 952.43)">O</text><text class="cls-61" transform="matrix(0.4, -0.9, 0.92, 0.39, 124.82, 950.24)">R</text><text class="cls-62" transform="matrix(0.32, -0.93, 0.95, 0.31, 125.83, 947.97)">M</text><text class="cls-63" transform="matrix(0.24, -0.95, 0.97, 0.23, 126.77, 945.02)">I</text><text class="cls-64" transform="matrix(0.17, -0.96, 0.99, 0.16, 127.15, 943.45)">N</text><text class="cls-65" transform="matrix(0.08, -0.97, 1, 0.08, 127.57, 940.84)">G</text><polygon class="cls-5" points="100.02 965.99 100.42 967.18 99.38 966.45 98.34 967.18 98.74 965.99 97.7 965.25 98.98 965.25 99.38 964.07 99.78 965.25 101.06 965.25 100.02 965.99"/><polygon class="cls-5" points="76.02 956.13 76.42 957.32 75.38 956.58 74.34 957.32 74.74 956.13 73.7 955.39 74.98 955.39 75.38 954.2 75.78 955.39 77.06 955.39 76.02 956.13"/><text class="cls-66" transform="translate(77.81 938.58) scale(1.03 1)">L</text><text class="cls-67" transform="translate(107.08 951.19) scale(1.03 1)">W</text><rect class="cls-5" x="91.62" y="923.33" width="15.08" height="2.55"/><g class="cls-68"><g class="cls-69"><path d="M105.16,949.61v4.06h-3.27l-3.76,44s3.86,1.93,2,4.06l-4.06,3.46L92,1001.68c-1.88-2.13,2-4.06,2-4.06l-3.76-44H86.94v-4.06"/><polyline points="104.57 942.6 101.99 947.97 96.05 947.97 90.11 947.97 87.53 942.6"/><path d="M97.83,912s.55,5.89-7.18,12.51c0,0-10.29,9.8,3.6,17.19,0,0-6.81-5.26-1.84-12.27a58.22,58.22,0,0,1,5.43-6.56,9.52,9.52,0,0,0,0-10.87"/><path d="M96.87,941.73c-7.65-6.15.28-13.69.28-13.69,7.42-7.54,5.44-11.09,5.44-11.09s4.88,6-2.08,12.39c0,0-3.57,3.48-4,6.31,0,0-.69,3.6.38,6.08"/><path d="M106.19,923.66a10.15,10.15,0,0,1-3.53,7.53s-3.23,2.76-4,5.62c0,0-.88,2.93.84,4.92,0,0-.14-2.39,3.39-5.57,0,0,4.86-3.23,4.57-8.3,0,0-.3-3-1.3-4.2"/></g></g><text class="cls-70" transform="translate(94.13 946.91) scale(1.03 1)">O</text><g class="cls-71"><path class="cls-15" d="M202.53,937.62c0,.53-1.15,1-1.18,1.54s1.08,1.13,1,1.65-1.24.91-1.31,1.43.95,1.22.85,1.73-1.33.79-1.45,1.3.83,1.3.68,1.8-1.4.67-1.58,1.16.7,1.38.5,1.86-1.46.53-1.69,1,.57,1.43.32,1.89-1.51.4-1.78.85.42,1.48.13,1.92-1.54.25-1.85.68.27,1.5-.06,1.92-1.56.11-1.91.5.12,1.53-.25,1.91-1.56,0-1.95.33,0,1.53-.43,1.87-1.55-.17-2,.15-.17,1.52-.61,1.82-1.53-.31-2,0-.32,1.5-.79,1.76-1.49-.45-2-.21-.47,1.46-1,1.68-1.43-.59-1.94-.4-.6,1.41-1.12,1.58-1.37-.72-1.88-.57-.75,1.35-1.28,1.47-1.29-.84-1.82-.74-.87,1.27-1.41,1.34-1.2-1-1.74-.91-1,1.19-1.54,1.21-1.1-1.06-1.65-1.06-1.11,1.09-1.64,1.06-1-1.16-1.54-1.21-1.21,1-1.74.91-.88-1.24-1.41-1.34-1.3.87-1.83.74-.75-1.32-1.27-1.47-1.38.74-1.89.57-.62-1.38-1.12-1.58-1.45.61-1.94.4-.48-1.44-1-1.68-1.5.47-2,.21-.34-1.47-.79-1.76-1.54.34-2,0-.19-1.5-.62-1.82-1.56.19-2-.15,0-1.51-.43-1.87-1.58,0-2-.33.1-1.51-.25-1.91-1.58-.09-1.91-.51.25-1.49-.06-1.91-1.56-.24-1.85-.68.39-1.47.12-1.92-1.52-.38-1.77-.85.54-1.41.31-1.89-1.48-.52-1.68-1,.67-1.36.5-1.86-1.43-.65-1.58-1.16.81-1.29.68-1.8-1.35-.78-1.45-1.3.93-1.21.85-1.73-1.27-.91-1.32-1.43,1.05-1.12,1-1.65-1.17-1-1.17-1.54,1.15-1,1.17-1.54-1.07-1.13-1-1.65,1.24-.91,1.32-1.43-1-1.22-.85-1.73,1.32-.79,1.45-1.3-.83-1.3-.68-1.8,1.4-.67,1.58-1.16-.7-1.37-.5-1.86,1.46-.53,1.68-1-.56-1.43-.31-1.89,1.5-.4,1.77-.85-.41-1.48-.12-1.91,1.53-.26,1.85-.69-.27-1.5.06-1.91,1.55-.12,1.91-.51-.12-1.53.25-1.9,1.56,0,2-.34,0-1.52.43-1.87,1.55.18,2-.15.18-1.52.62-1.82,1.52.31,2,0,.32-1.5.79-1.76,1.48.45,2,.21.47-1.46,1-1.68,1.44.59,1.94.4.61-1.41,1.12-1.58,1.37.72,1.89.57.75-1.35,1.27-1.47,1.29.84,1.83.74.87-1.27,1.41-1.34,1.2,1,1.74.91,1-1.19,1.54-1.21,1.1,1.06,1.64,1.06,1.11-1.09,1.65-1.06,1,1.16,1.54,1.21,1.21-1,1.74-.91.88,1.25,1.41,1.34,1.3-.86,1.82-.74.76,1.32,1.28,1.47,1.38-.74,1.89-.57.62,1.38,1.12,1.58,1.44-.61,1.93-.39.48,1.43,1,1.67,1.5-.47,2-.21.34,1.48.79,1.76,1.54-.33,2,0,.19,1.5.61,1.82,1.57-.19,2,.15,0,1.51.43,1.88,1.58,0,1.95.33-.11,1.5.25,1.9,1.57.1,1.91.51-.25,1.49.06,1.92,1.56.24,1.85.68-.4,1.46-.13,1.91,1.53.38,1.78.85-.54,1.42-.31,1.89,1.48.53,1.68,1-.68,1.36-.5,1.86,1.42.66,1.58,1.16-.81,1.29-.68,1.8,1.35.79,1.45,1.3-.93,1.21-.85,1.73,1.26.91,1.31,1.43-1,1.12-1,1.65S202.53,937.09,202.53,937.62Z"/></g></g><image width="1200" height="475" transform="translate(475.51 900.91) scale(0.16 0.16)" xlink:href="../../../life%20of%20a%20wildcat/LCHD-CHC-White_PRINT-SMALL.png"/><image width="1415" height="243" transform="translate(261.4 922.57) scale(0.14 0.13)" xlink:href="../../../life%20of%20a%20wildcat/daring.png"/><image width="770" height="535" transform="translate(149 909.12) scale(0.11 0.13)" xlink:href="../../../life%20of%20a%20wildcat/wildcat.png"/><text class="cls-72" transform="translate(180.11 977.92) scale(0.55 1)">The A<tspan class="cls-73" x="23.59" y="0">l</tspan><tspan class="cls-74" x="27.68" y="0">c</tspan><tspan x="33.14" y="0">ohol Prevention </tspan><tspan class="cls-75" x="113.5" y="0">C</tspan><tspan class="cls-76" x="119.33" y="0">am</tspan><tspan class="cls-77" x="132.77" y="0">p</tspan><tspan x="136.57" y="0">aign is brought </tspan><tspan class="cls-78" x="212.42" y="0">t</tspan><tspan x="216.63" y="0">o </tspan><tspan class="cls-79" x="225.97" y="0">y</tspan><tspan class="cls-80" x="230.81" y="0">ou </tspan><tspan class="cls-81" x="246.22" y="0">b</tspan><tspan class="cls-80" x="250.18" y="0">y the Lake </tspan><tspan class="cls-74" x="298.6" y="0">C</tspan><tspan x="304.06" y="0">ounty Hea</tspan><tspan class="cls-82" x="352.34" y="0">l</tspan><tspan x="355.61" y="0">th De</tspan><tspan class="cls-77" x="378.49" y="0">p</tspan><tspan x="382.29" y="0">artment and </tspan><tspan class="cls-83" x="443.95" y="0">C</tspan><tspan x="449.41" y="0">ommunity Hea</tspan><tspan class="cls-84" x="514.16" y="0">l</tspan><tspan class="cls-85" x="517.44" y="0" xml:space="preserve">th Center and Libertyville High School.  </tspan><tspan x="-1.86" y="9.92">Funding is pr</tspan><tspan class="cls-86" x="57.25" y="9.92">o</tspan><tspan x="63.58" y="9.92">vided in whole or in </tspan><tspan class="cls-77" x="157.59" y="9.92">p</tspan><tspan x="161.39" y="9.92">art </tspan><tspan class="cls-81" x="180.24" y="9.92">b</tspan><tspan x="184.2" y="9.92">y the Illinois De</tspan><tspan class="cls-87" x="254.81" y="9.92">p</tspan><tspan class="cls-76" x="258.6" y="9.92">artment of Human Services and the Subs</tspan><tspan class="cls-88" x="444.95" y="9.92">t</tspan><tspan x="448.77" y="9.92">ance Abuse and Men</tspan><tspan class="cls-88" x="540.62" y="9.92">t</tspan><tspan x="544.45" y="9.92">al Hea</tspan><tspan class="cls-89" x="573.95" y="9.92">l</tspan><tspan x="577.23" y="9.92">th Services Administr</tspan><tspan class="cls-88" x="673.92" y="9.92">a</tspan><tspan class="cls-85" x="679.17" y="9.92" xml:space="preserve">tion.  </tspan><tspan class="cls-90" x="44.91" y="19.84">F</tspan><tspan x="49.27" y="19.84">or additional in</tspan><tspan class="cls-90" x="124.64" y="19.84">f</tspan><tspan x="128.99" y="19.84">orm</tspan><tspan class="cls-91" x="148.43" y="19.84">a</tspan><tspan x="153.68" y="19.84">tion </tspan><tspan class="cls-74" x="176.01" y="19.84">c</tspan><tspan x="181.47" y="19.84">on</tspan><tspan class="cls-91" x="194.43" y="19.84">t</tspan><tspan class="cls-92" x="198.26" y="19.84">a</tspan><tspan x="203.91" y="19.84">ct Dr. Bren</tspan><tspan class="cls-93" x="253.7" y="19.84">d</tspan><tspan class="cls-76" x="258.68" y="19.84">a Nelson, Prevention and Wellness </tspan><tspan class="cls-83" x="422.2" y="19.84">C</tspan><tspan x="427.66" y="19.84">oordin</tspan><tspan class="cls-88" x="460.54" y="19.84">a</tspan><tspan class="cls-94" x="465.79" y="19.84">t</tspan><tspan x="470" y="19.84">or </tspan><tspan class="cls-73" x="484.68" y="19.84">l</tspan><tspan x="488.76" y="19.84">o</tspan><tspan class="cls-95" x="495.68" y="19.84">c</tspan><tspan class="cls-96" x="501.52" y="19.84">a</tspan><tspan class="cls-85" x="506.76" y="19.84">ted in the </tspan><tspan class="cls-97" x="551.96" y="19.84">b</tspan><tspan class="cls-92" x="556.57" y="19.84">a</tspan><tspan class="cls-98" x="562.22" y="19.84">ck offices of DIL/006.</tspan></text><path class="cls-5" d="M72.37,764.07V776h9.7V764.07h5.82v29.71H82.07V781.87h-9.7v11.91H66.55V764.07Z"/><path class="cls-5" d="M103.64,763.46l13.26,30.32h-6.33l-2-4.52H98.67l-2,4.52h-6.3ZM106.31,784l-2.65-6.28L101,784Z"/><path class="cls-5" d="M119.42,784.86V764.07h10.19a9.68,9.68,0,0,1,7.2,3,10.15,10.15,0,0,1,3,7.37,10,10,0,0,1-3,7.34,9.8,9.8,0,0,1-7.2,3h-4.36v8.92h-5.83ZM129.61,770h-4.36v9l4.36,0a4.49,4.49,0,0,0,0-9Z"/><path class="cls-5" d="M142.34,784.86V764.07h10.19a9.68,9.68,0,0,1,7.2,3,10.11,10.11,0,0,1,3,7.37,9.93,9.93,0,0,1-3,7.34,9.78,9.78,0,0,1-7.2,3h-4.36v8.92h-5.83ZM152.53,770h-4.36v9l4.36,0a4.49,4.49,0,0,0,0-9Z"/><path class="cls-5" d="M165.26,764.07h5.83v29.71h-5.83Z"/><path class="cls-5" d="M192.2,764v6H180.53v6h8.75v5.95h-8.75v6H192.2v5.94H174.7V764Z"/><path class="cls-5" d="M194.72,764.07h9.47a10.52,10.52,0,0,1,7.6,3,8.49,8.49,0,0,1,2.81,6.74v.78a9.82,9.82,0,0,1-1.84,5.66,6.61,6.61,0,0,1-3.48,2.74L216,793.78h-7.13l-8.34-13.14v13.14h-5.83ZM208.58,774a4.06,4.06,0,0,0-1.15-2.86,5.37,5.37,0,0,0-3.6-1.18h-3.28v8.2h2.25v0h1.95A4,4,0,0,0,208.58,774Z"/><path class="cls-5" d="M218.36,790.92a3.73,3.73,0,1,1,3.73,3.8A3.8,3.8,0,0,1,218.36,790.92Z"/><path class="cls-5" d="M72.37,809.38v11.89h9.7V809.38h5.82V839.1H82.07V827.19h-9.7V839.1H66.55V809.38Z"/><path class="cls-5" d="M109,809.31v6H97.32v6h8.75v6H97.32v6H109v5.93H91.49V809.31Z"/><path class="cls-5" d="M123.67,808.77l13.25,30.33H130.6l-2-4.52H118.7l-2,4.52h-6.3Zm2.66,20.54L123.68,823,121,829.31Z"/><path class="cls-5" d="M145.27,809.38v23.78h11.67v5.94h-17.5V809.38Z"/><path class="cls-5" d="M173.11,809.38v5.92H166v23.8h-5.85V815.3H153v-5.92Z"/><path class="cls-5" d="M181.45,809.38v11.89h9.7V809.38H197V839.1h-5.82V827.19h-9.7V839.1h-5.82V809.38Z"/><path class="cls-5" d="M200.57,809.38h5.83V839.1h-5.83Z"/><path class="cls-5" d="M227.51,809.31v6H215.84v6h8.75v6h-8.75v6h11.67v5.93H210V809.31Z"/><path class="cls-5" d="M230,809.38h9.47a10.53,10.53,0,0,1,7.6,3,8.46,8.46,0,0,1,2.81,6.74v.78a9.76,9.76,0,0,1-1.84,5.65,6.58,6.58,0,0,1-3.48,2.75l6.76,10.77h-7.13L235.88,826V839.1h-5.83Zm13.86,10a4,4,0,0,0-1.15-2.86,5.37,5.37,0,0,0-3.6-1.18h-3.28v8.2h2.25v0h1.95A4,4,0,0,0,243.89,819.34Z"/><path class="cls-5" d="M253.67,836.24a3.73,3.73,0,1,1,3.73,3.8A3.81,3.81,0,0,1,253.67,836.24Z"/><path class="cls-5" d="M72.37,854.7v11.89h9.7V854.7h5.82v29.71H82.07v-11.9h-9.7v11.9H66.55V854.7Z"/><path class="cls-5" d="M91.49,854.7h5.83v29.71H91.49Z"/><path class="cls-5" d="M114.57,854.52a14.68,14.68,0,0,1,10.43,4.4l-4.16,4.26a8.5,8.5,0,0,0-6.23-2.67,8.34,8.34,0,0,0-6.23,2.67,9.19,9.19,0,0,0,0,12.79,8.31,8.31,0,0,0,6.23,2.65,8.79,8.79,0,0,0,8-5.19h-8.29v-5.7h14.91c.42,5.56-1.36,9.59-4.23,12.5a14.06,14.06,0,0,1-10.4,4.4,13.88,13.88,0,0,1-10.39-4.4,14.64,14.64,0,0,1-4.33-10.65,14.82,14.82,0,0,1,4.33-10.68,13.89,13.89,0,0,1,10.39-4.44Z"/><path class="cls-5" d="M137.58,854.7v11.89h9.71V854.7h5.81v29.71h-5.81v-11.9h-9.71v11.9h-5.81V854.7Z"/><path class="cls-5" d="M174.21,854.63v6H162.54v6h8.75v5.95h-8.75v6h11.67v5.94h-17.5V854.63Z"/><path class="cls-5" d="M176.73,854.7h9.47a10.54,10.54,0,0,1,7.6,3,8.47,8.47,0,0,1,2.81,6.75v.77a9.72,9.72,0,0,1-1.84,5.66,6.7,6.7,0,0,1-3.47,2.75l6.75,10.76h-7.13l-8.34-13.14v13.14h-5.83Zm13.86,9.95a4,4,0,0,0-1.15-2.85,5.32,5.32,0,0,0-3.6-1.18h-3.28v8.2h2.25v0h1.95A4,4,0,0,0,190.59,864.65Z"/><path class="cls-5" d="M211.36,875.49V854.7h10.19a9.68,9.68,0,0,1,7.2,3,10.16,10.16,0,0,1,3,7.37,10,10,0,0,1-3,7.34,9.77,9.77,0,0,1-7.2,3h-4.36v8.92h-5.83Zm10.19-14.87h-4.36v9h4.36a4.49,4.49,0,0,0,0-9Z"/><path class="cls-5" d="M251.78,854.63v6H240.11v6h8.75v5.95h-8.75v6h11.67v5.94h-17.5V854.63Z"/><path class="cls-5" d="M254.3,854.7h9.47a10.54,10.54,0,0,1,7.6,3,8.47,8.47,0,0,1,2.81,6.75v.77a9.72,9.72,0,0,1-1.84,5.66,6.7,6.7,0,0,1-3.47,2.75l6.75,10.76h-7.13l-8.34-13.14v13.14h-5.83Zm13.86,9.95A4,4,0,0,0,267,861.8a5.32,5.32,0,0,0-3.6-1.18h-3.28v8.2h2.25v0h1.95A4,4,0,0,0,268.16,864.65Z"/><path class="cls-5" d="M295.62,854.63v6H284v6h8.75v5.95H284v11.93h-5.84V854.63Z"/><path class="cls-5" d="M321.59,858.9a15.27,15.27,0,0,1,0,21.33,14.54,14.54,0,0,1-20.82,0,15.32,15.32,0,0,1,0-21.33,14.42,14.42,0,0,1,20.82,0Zm-16.66,4.24a8.91,8.91,0,0,0-2.59,6.4,8.79,8.79,0,0,0,2.59,6.39,8.69,8.69,0,0,0,12.48,0,8.74,8.74,0,0,0,2.61-6.39,8.84,8.84,0,0,0-2.61-6.4,8.67,8.67,0,0,0-12.48,0Z"/><path class="cls-5" d="M328.41,854.7h9.47a10.53,10.53,0,0,1,7.6,3,8.47,8.47,0,0,1,2.81,6.75v.77a9.72,9.72,0,0,1-1.84,5.66,6.62,6.62,0,0,1-3.47,2.75l6.75,10.76H342.6l-8.33-13.14v13.14h-5.84Zm13.87,9.95a4.08,4.08,0,0,0-1.15-2.85,5.35,5.35,0,0,0-3.61-1.18h-3.27v8.2h2.25v0h1.94A4,4,0,0,0,342.28,864.65Z"/><path class="cls-5" d="M366.46,874l14.21-20v30.41h-5.84V872.1l-8.37,11.83-8.39-11.83v12.31h-5.83V854Z"/><path class="cls-5" d="M384.27,854.7h5.83v29.71h-5.83Z"/><path class="cls-5" d="M411.19,871.12V854.63H417V885L399.54,868v16.5H393.7V854.07Z"/><path class="cls-5" d="M434.29,854.52a14.66,14.66,0,0,1,10.42,4.4l-4.16,4.26a8.48,8.48,0,0,0-6.23-2.67,8.35,8.35,0,0,0-6.23,2.67,9.19,9.19,0,0,0,0,12.79,8.34,8.34,0,0,0,6.23,2.65,8.78,8.78,0,0,0,8-5.19H434v-5.7h14.91c.41,5.56-1.37,9.59-4.23,12.5a14.07,14.07,0,0,1-10.41,4.4,13.91,13.91,0,0,1-10.39-4.4,14.63,14.63,0,0,1-4.32-10.65,14.81,14.81,0,0,1,4.32-10.68,13.91,13.91,0,0,1,10.39-4.44Z"/><path class="cls-5" d="M451.3,881.56a3.73,3.73,0,1,1,3.73,3.79A3.8,3.8,0,0,1,451.3,881.56Z"/><text class="cls-99" transform="translate(59.58 82.07) scale(0.98 1)">A<tspan class="cls-100" x="28.6" y="0">L</tspan><tspan class="cls-101" x="47.26" y="0">C</tspan><tspan x="72.23" y="0">OHOL IM</tspan><tspan class="cls-102" x="235.05" y="0">P</tspan><tspan x="252.4" y="0">AIRS </tspan><tspan class="cls-103" x="346.54" y="0">Y</tspan><tspan x="368.67" y="0">OUR MEMORY*</tspan></text><text class="cls-104" transform="translate(206.06 1019.82) scale(0.98 1)">*https://ww<tspan class="cls-105" x="58.96" y="0">w</tspan><tspan class="cls-106" x="66.65" y="0">.cdc.g</tspan><tspan class="cls-107" x="98.41" y="0">o</tspan><tspan x="105.31" y="0">v/a</tspan><tspan class="cls-108" x="123.17" y="0">l</tspan><tspan class="cls-109" x="127.62" y="0">c</tspan><tspan x="133.57" y="0">ohol/</tspan><tspan class="cls-110" x="163.91" y="0">f</tspan><tspan class="cls-111" x="167.48" y="0">a</tspan><tspan x="173.63" y="0">ctsheets/under</tspan><tspan class="cls-112" x="250.46" y="0">a</tspan><tspan x="256.61" y="0">ge-drinking.htm</tspan></text><text/><text class="cls-113" transform="matrix(0.97, 0.09, -0.09, 1, 376.99, 168.44)">m</text><text class="cls-113" transform="translate(446.28 176.21) rotate(14.56) scale(0.98 1)">e</text><text class="cls-113" transform="translate(477.37 182.4) rotate(23.66) scale(0.98 1)">m</text><text class="cls-113" transform="translate(541.46 211.72) rotate(33.26) scale(0.98 1)">o</text><text class="cls-113" transform="matrix(0.76, 0.62, -0.63, 0.77, 572.63, 232.25)">r</text><text class="cls-113" transform="matrix(0.71, 0.68, -0.69, 0.72, 596.45, 251.89)">i</text><text class="cls-113" transform="matrix(0.65, 0.73, -0.75, 0.66, 611, 265.31)">e</text><text class="cls-113" transform="translate(633.49 290.79) rotate(54.49) scale(0.98 1)">s</text><text class="cls-113" transform="translate(651.92 317.23) rotate(58.05) scale(0.98 1)">.</text><text class="cls-113" transform="matrix(0.5, 0.84, -0.86, 0.51, 656.01, 323.78)">.</text><text class="cls-113" transform="translate(659.93 330.41) rotate(60.84) scale(0.98 1)">.</text><text class="cls-113" transform="translate(663.69 337.13) rotate(62.23) scale(0.98 1)">.</text><text class="cls-114" transform="translate(78.67 502.53) rotate(10.42) scale(0.97 1)">are <tspan class="cls-115" x="90.3" y="0">m</tspan><tspan x="142.88" y="0">ade to be</tspan><tspan x="20.71" y="75.2">r</tspan><tspan class="cls-115" x="44.09" y="75.2">emem</tspan><tspan x="198.5" y="75.2">bered.</tspan></text></svg>