<svg id="Layer_1" data-name="Layer 1" xmlns="http://www.w3.org/2000/svg" xmlns:xlink="http://www.w3.org/1999/xlink" viewBox="0 0 841.89 595.28"><defs><style>.cls-1{fill:#e0dff0;}.cls-2{fill:#120f43;stroke:#010101;}.cls-10,.cls-2{stroke-miterlimit:10;}.cls-3{fill:url(#linear-gradient);}.cls-4{fill:#2a2875;}.cls-5{fill:#fed93c;}.cls-6{fill:#e0d5e9;}.cls-7{fill:#bab4da;}.cls-12,.cls-13,.cls-8{fill:#fff;}.cls-9{fill:#feea87;}.cls-10{fill:none;stroke:#fff;}.cls-11{fill:#f0e2ef;}.cls-12{font-size:15.36px;}.cls-12,.cls-13{font-family:PrintClearly, Print Clearly;}.cls-13{font-size:18.94px;}.cls-14{letter-spacing:-0.02em;}.cls-15{font-size:23.3px;}.cls-15,.cls-22,.cls-24,.cls-26{fill:#231f20;font-family:Avenir-Light, Avenir;font-weight:300;}.cls-16{letter-spacing:-0.11em;}.cls-17,.cls-18,.cls-19{font-size:20.97px;}.cls-18{letter-spacing:0em;}.cls-19{letter-spacing:0em;}.cls-20{letter-spacing:-0.02em;}.cls-21{letter-spacing:-0.02em;}.cls-22{font-size:13.98px;}.cls-23{letter-spacing:-0.02em;}.cls-24,.cls-26{font-size:12px;}.cls-24,.cls-28{letter-spacing:-0.02em;}.cls-25{letter-spacing:0em;}.cls-27{letter-spacing:0.01em;}.cls-29{letter-spacing:-0.02em;}.cls-30{letter-spacing:0em;}</style><linearGradient id="linear-gradient" x1="123.8" y1="357.75" x2="123.8" y2="192.96" gradientUnits="userSpaceOnUse"><stop offset="0.33" stop-color="#e9f5fd"/><stop offset="1" stop-color="#1a1f4b"/></linearGradient></defs><title>Artboard 1</title><rect class="cls-1" y="-2.37" width="841.89" height="600.02"/><rect class="cls-2" x="40.65" y="80.26" width="168.31" height="403.86"/><ellipse class="cls-3" cx="123.8" cy="275.35" rx="61.71" ry="82.39"/><path class="cls-4" d="M64.11,254.2a15.06,15.06,0,0,1,1-4.3c1.31-3.25,3.61-5,9.15-7.65,5.33-2.53,8-3.82,11.57-4.54,9.33-1.89,18.26-2.39,19.38,2.56,1,4.48-5,10.52-4,14.07.8,2.88,6.09,3.51,23.18-3.62,8.07-3.36,16.8-6.32,27.87-13.69a137.9,137.9,0,0,0,18.66-15l2.81,4.84a83,83,0,0,1,6.54,14.94c.67,2,1.23,4,1.72,5.9l-1.25.63C172.91,252.25,169,254,169,254a75.92,75.92,0,0,1-10.09,3.8A73,73,0,0,1,142,260.18c-10.31.47-18.43,1.06-23.5,1.47,0,0-22.87,1.84-25.41-5a26.83,26.83,0,0,1-.64-4c-.27-2.13,1.14-9,.68-10.3-1.42-4.17-14.71,3.05-17.48,4.53A94.32,94.32,0,0,0,64.11,254.2Z"/><path class="cls-5" d="M120.48,217.76c.14-1.69,6.24-2.36,10.92-2.2,4.17.13,9.52.4,15.48,4.42a36.94,36.94,0,0,1,9.32,9.66c2.94,4.21,15,22.77,12.28,48a69.56,69.56,0,0,1-6.34,22.16A52.3,52.3,0,0,1,142,322c-.39.24-.79.49-1.35.8-3.88,2.19-13,6.33-23.45,2.35-13.9-5.29-23-23.26-21.61-25.83,1-1.86,6.82,5.75,17.85,6.52a23.91,23.91,0,0,0,18.6-6c7.54-6.61,10.59-16.26,11.47-19.38,2.83-10,1.85-18.67,1.2-24.51a59,59,0,0,0-4.3-17.52,39.28,39.28,0,0,0-9.77-14C125,219.49,120.36,219.25,120.48,217.76Z"/><path class="cls-6" d="M137.12,347.33a17.79,17.79,0,0,0,13.95.94,21.81,21.81,0,0,0,8.73-6.1,68.3,68.3,0,0,0,10.13-12A82.18,82.18,0,0,0,176.16,319c-3-3.1-6.87-4.14-9.91-2.31-4.47,2.68-6.94,11.4-4.21,19.62-4-8.34-10.81-11.36-16.43-7.63C141,331.76,137.78,338.94,137.12,347.33Z"/><path class="cls-7" d="M87,341.54l34.58,2.74c.15-1.48.78-8.79-1.91-13.4-3.3-5.65-10.67-5.67-16.4,2.85-1.14-10.31-6.89-16.84-12.21-15.39-4.15,1.13-7.64,7-8.5,14.66-5.49-5.75-6.94-6.86-7.09-6.61-.29.44,3.25,5.23,3.89,6.1A88.61,88.61,0,0,0,87,341.54Z"/><ellipse class="cls-8" cx="166.62" cy="227.63" rx="1.74" ry="2.34"/><ellipse class="cls-8" cx="175.19" cy="239.42" rx="1.74" ry="2.34"/><ellipse class="cls-8" cx="155.24" cy="244.05" rx="1.74" ry="2.34"/><ellipse class="cls-8" cx="85.73" cy="239.42" rx="1.74" ry="2.34"/><ellipse class="cls-8" cx="94.31" cy="257.31" rx="1.74" ry="2.34"/><ellipse class="cls-8" cx="104.75" cy="248.68" rx="1.74" ry="2.34"/><ellipse class="cls-8" cx="156.96" cy="261.94" rx="1.74" ry="2.34"/><ellipse class="cls-8" cx="117.53" cy="259.62" rx="1.74" ry="2.34"/><ellipse class="cls-8" cx="126.1" cy="244.05" rx="1.74" ry="2.34"/><ellipse class="cls-8" cx="173.47" cy="259.62" rx="1.74" ry="2.34"/><ellipse class="cls-8" cx="166.55" cy="239.36" rx="2.44" ry="3.26"/><ellipse class="cls-8" cx="83.17" cy="244.16" rx="0.89" ry="1.2"/><ellipse class="cls-8" cx="91.12" cy="250.69" rx="0.89" ry="1.2"/><ellipse class="cls-8" cx="93.46" cy="241.22" rx="0.89" ry="1.2"/><ellipse class="cls-8" cx="86.91" cy="253.21" rx="0.42" ry="0.57"/><ellipse class="cls-8" cx="98.44" cy="266.89" rx="0.42" ry="0.57"/><ellipse class="cls-8" cx="92.68" cy="254.27" rx="0.42" ry="0.57" transform="translate(-0.36 0.13) rotate(-0.08)"/><ellipse class="cls-8" cx="89.33" cy="236.48" rx="0.5" ry="0.67"/><ellipse class="cls-8" cx="99.14" cy="249.74" rx="0.5" ry="0.67"/><ellipse class="cls-8" cx="90.18" cy="254.69" rx="0.42" ry="0.57" transform="translate(-0.36 0.13) rotate(-0.08)"/><ellipse class="cls-8" cx="90.11" cy="254.79" rx="0.5" ry="0.67"/><ellipse class="cls-8" cx="97.12" cy="251.85" rx="0.5" ry="0.67"/><ellipse class="cls-8" cx="97.12" cy="241.74" rx="0.5" ry="0.67"/><ellipse class="cls-8" cx="94.16" cy="247.43" rx="0.5" ry="0.67"/><ellipse class="cls-8" cx="109.66" cy="255.95" rx="0.73" ry="0.99"/><ellipse class="cls-8" cx="105.46" cy="262.05" rx="0.73" ry="0.99"/><ellipse class="cls-8" cx="111.85" cy="260.16" rx="0.73" ry="0.99"/><ellipse class="cls-8" cx="114.18" cy="253.84" rx="0.73" ry="0.99"/><ellipse class="cls-8" cx="108.65" cy="259.21" rx="0.5" ry="0.67"/><ellipse class="cls-8" cx="100.24" cy="269.52" rx="0.5" ry="0.67"/><ellipse class="cls-8" cx="122.6" cy="256.37" rx="1.04" ry="1.41"/><ellipse class="cls-8" cx="118.94" cy="255.42" rx="0.5" ry="0.67"/><ellipse class="cls-8" cx="104.29" cy="254.58" rx="0.5" ry="0.67"/><ellipse class="cls-8" cx="122.91" cy="250.06" rx="1.04" ry="1.41"/><ellipse class="cls-8" cx="126.96" cy="251.74" rx="1.04" ry="1.41"/><ellipse class="cls-8" cx="129.22" cy="255" rx="0.5" ry="0.67"/><ellipse class="cls-8" cx="126.42" cy="258.37" rx="0.5" ry="0.67"/><ellipse class="cls-8" cx="142.7" cy="250.9" rx="1.04" ry="1.41"/><ellipse class="cls-8" cx="142.7" cy="250.9" rx="1.04" ry="1.41"/><ellipse class="cls-8" cx="149.4" cy="253.84" rx="1.04" ry="1.41"/><ellipse class="cls-8" cx="142.7" cy="243.11" rx="1.04" ry="1.41"/><ellipse class="cls-8" cx="137.17" cy="249.53" rx="0.5" ry="0.67"/><ellipse class="cls-8" cx="144.65" cy="248.27" rx="0.5" ry="0.67"/><ellipse class="cls-8" cx="150.57" cy="248.27" rx="0.5" ry="0.67"/><ellipse class="cls-8" cx="137.17" cy="244.48" rx="0.5" ry="0.67"/><ellipse class="cls-8" cx="160.86" cy="260.9" rx="0.5" ry="0.67"/><ellipse class="cls-8" cx="156.73" cy="235.96" rx="0.89" ry="1.2"/><ellipse class="cls-8" cx="171.69" cy="245.22" rx="0.89" ry="1.2"/><ellipse class="cls-8" cx="163.59" cy="252.16" rx="1.2" ry="1.62"/><path class="cls-9" d="M115,217.14c.13-1.65,6.23-2.25,10.9-2.06,4.16.17,9.51.47,15.48,4.42a37,37,0,0,1,9.35,9.45c3,4.1,15.06,22.22,12.47,46.72A65.51,65.51,0,0,1,157,297.13a50.52,50.52,0,0,1-20,21.39c-.39.23-.79.47-1.35.77-3.86,2.09-13,6-23.41,2.1-13.9-5.25-23-22.76-21.69-25.25,1-1.8,6.83,5.64,17.86,6.47a24.11,24.11,0,0,0,18.54-5.69c7.51-6.36,10.52-15.7,11.38-18.73,2.78-9.71,1.77-18.11,1.09-23.78a56.12,56.12,0,0,0-4.36-17,39.08,39.08,0,0,0-9.82-13.68C119.55,218.85,114.91,218.58,115,217.14Z"/><path class="cls-8" d="M118.44,251.42c.06.39-.11.56-.37.39a.87.87,0,0,0-.94,0c-.26.19-.43,0-.39-.36a1.89,1.89,0,0,0-.32-1.19c-.22-.27-.16-.55.13-.62a1.25,1.25,0,0,0,.74-.78c.12-.36.34-.37.47,0a1.22,1.22,0,0,0,.78.72c.29,0,.37.31.16.6A1.92,1.92,0,0,0,118.44,251.42Z"/><path class="cls-10" d="M118.44,251.42c.06.39-.11.56-.37.39a.87.87,0,0,0-.94,0c-.26.19-.43,0-.39-.36a1.89,1.89,0,0,0-.32-1.19c-.22-.27-.16-.55.13-.62a1.25,1.25,0,0,0,.74-.78c.12-.36.34-.37.47,0a1.22,1.22,0,0,0,.78.72c.29,0,.37.31.16.6A1.92,1.92,0,0,0,118.44,251.42Z"/><path class="cls-8" d="M152.22,234.71c.08.54-.23.73-.68.42l-.73-.51a1.42,1.42,0,0,0-1.6,0l-.73.6c-.43.35-.74.18-.68-.37l.16-1.74a2.86,2.86,0,0,0-.51-1.79l-.73-1a.61.61,0,0,1,.36-1l.66-.16A2,2,0,0,0,149,228l.48-1.53c.17-.52.46-.53.65,0l.55,1.45A1.89,1.89,0,0,0,152,229l.65.11a.6.6,0,0,1,.43,1l-.71,1A3.07,3.07,0,0,0,152,233Z"/><path class="cls-10" d="M152.22,234.71c.08.54-.23.73-.68.42l-.73-.51a1.42,1.42,0,0,0-1.6,0l-.73.6c-.43.35-.74.18-.68-.37l.16-1.74a2.86,2.86,0,0,0-.51-1.79l-.73-1a.61.61,0,0,1,.36-1l.66-.16A2,2,0,0,0,149,228l.48-1.53c.17-.52.46-.53.65,0l.55,1.45A1.89,1.89,0,0,0,152,229l.65.11a.6.6,0,0,1,.43,1l-.71,1A3.07,3.07,0,0,0,152,233Z"/><path class="cls-8" d="M177.62,253.65c.08.54-.22.73-.67.42l-.74-.51a1.38,1.38,0,0,0-1.59.06l-.74.59c-.43.35-.73.18-.68-.37l.17-1.74a2.93,2.93,0,0,0-.52-1.79l-.73-1a.61.61,0,0,1,.36-1l.66-.16a2,2,0,0,0,1.27-1.2l.48-1.52c.17-.53.46-.54.65,0l.55,1.46a1.9,1.9,0,0,0,1.34,1.09l.64.11a.59.59,0,0,1,.43,1l-.71,1.05a3,3,0,0,0-.41,1.82Z"/><path class="cls-10" d="M177.62,253.65c.08.54-.22.73-.67.42l-.74-.51a1.38,1.38,0,0,0-1.59.06l-.74.59c-.43.35-.73.18-.68-.37l.17-1.74a2.93,2.93,0,0,0-.52-1.79l-.73-1a.61.61,0,0,1,.36-1l.66-.16a2,2,0,0,0,1.27-1.2l.48-1.52c.17-.53.46-.54.65,0l.55,1.46a1.9,1.9,0,0,0,1.34,1.09l.64.11a.59.59,0,0,1,.43,1l-.71,1.05a3,3,0,0,0-.41,1.82Z"/><path class="cls-8" d="M102.3,238.53c.08.55-.23.75-.69.45l-.37-.24a1.54,1.54,0,0,0-1.64.06l-.39.29c-.44.33-.75.16-.69-.39l.11-1a2.8,2.8,0,0,0-.53-1.77l-.42-.5a.58.58,0,0,1,.34-1l.3-.07a2,2,0,0,0,1.3-1.18l.29-.87c.18-.53.49-.53.7,0l.33.82a1.94,1.94,0,0,0,1.36,1.08l.28,0a.56.56,0,0,1,.41,1l-.41.57a2.84,2.84,0,0,0-.44,1.8Z"/><path class="cls-10" d="M102.3,238.53c.08.55-.23.75-.69.45l-.37-.24a1.54,1.54,0,0,0-1.64.06l-.39.29c-.44.33-.75.16-.69-.39l.11-1a2.8,2.8,0,0,0-.53-1.77l-.42-.5a.58.58,0,0,1,.34-1l.3-.07a2,2,0,0,0,1.3-1.18l.29-.87c.18-.53.49-.53.7,0l.33.82a1.94,1.94,0,0,0,1.36,1.08l.28,0a.56.56,0,0,1,.41,1l-.41.57a2.84,2.84,0,0,0-.44,1.8Z"/><path class="cls-11" d="M93.1,346.8a54.43,54.43,0,0,0,9.81,6.1c1.58.76,3.07,1.38,4.46,1.89a49.63,49.63,0,0,0,8.95,2.32,48.1,48.1,0,0,0,16.36-.21,50,50,0,0,0,13.4-4.63c1.19-.63,2.93-1.61,5-2.94,3.31-2.15,9-6.24,8.73-7.16-.22-.71-4,.83-4.26.93a21.19,21.19,0,0,0-6.63,4.49c1.32-9.44.27-19.48-2.72-25.45-4-8-11-7.72-15.64,2.25a26.25,26.25,0,0,0-8.1-4.43c-1.87-.6-6.84-2.21-11.22-.49-9.3,3.64-13,21-13.33,22.88a9.11,9.11,0,0,0-5.46-3.66c-2.64-.41-5.65.84-5.73,2.22,0,.28.07.77,3.74,3.79C91.49,345.56,92.4,346.27,93.1,346.8Z"/><ellipse class="cls-8" cx="148.62" cy="249.05" rx="2.44" ry="3.26"/><ellipse class="cls-8" cx="158.75" cy="255.36" rx="2.44" ry="3.26"/><ellipse class="cls-8" cx="144.73" cy="243.11" rx="0.89" ry="1.2"/><ellipse class="cls-8" cx="182.36" cy="252.68" rx="1.74" ry="2.34"/><path class="cls-4" d="M63.49,258c15.17-11.09,20.32-11.61,21.81-9.26,1.11,1.74-.4,4.13.78,7.58,2.17,6.34,10.25,7.31,15.9,8,4.26.52,6,.11,13.71-.21s9.53-.06,15.74-.21a203.86,203.86,0,0,0,26.19-2.31,90.13,90.13,0,0,0,25.4-9.68c.22.93.43,1.91.62,2.94.34,1.78.59,3.47.78,5a258.27,258.27,0,0,1-27,6.53c-30,5.27-32.26,4-50.65,2.73-5.94-.4-11.66-1.05-17.14-1.89a9.93,9.93,0,0,1-6.55-5.05c-1.81-3.55-.82-6.65-2-8.21-1.43-1.85-5.71-1.2-18.39,10.1,0-.1,0-.25,0-.43.07-.8.2-2.16.27-2.72C63.13,260.06,63.28,259.07,63.49,258Z"/><ellipse class="cls-8" cx="87.76" cy="258.99" rx="1.74" ry="2.34"/><ellipse class="cls-8" cx="121.27" cy="265.53" rx="0.5" ry="0.67"/><ellipse class="cls-8" cx="90.26" cy="264.89" rx="0.5" ry="0.67"/><path class="cls-8" d="M131.75,270.52c.08.55-.23.75-.69.45l-.37-.24a1.52,1.52,0,0,0-1.63.06l-.39.29c-.44.33-.75.16-.7-.39l.11-1a2.74,2.74,0,0,0-.53-1.77l-.41-.5a.57.57,0,0,1,.34-1l.29-.08a2,2,0,0,0,1.3-1.17l.3-.88c.18-.52.49-.52.69,0l.33.82a2,2,0,0,0,1.36,1.08l.29,0a.56.56,0,0,1,.4,1l-.41.57a2.76,2.76,0,0,0-.43,1.79Z"/><path class="cls-10" d="M131.75,270.52c.08.55-.23.75-.69.45l-.37-.24a1.52,1.52,0,0,0-1.63.06l-.39.29c-.44.33-.75.16-.7-.39l.11-1a2.74,2.74,0,0,0-.53-1.77l-.41-.5a.57.57,0,0,1,.34-1l.29-.08a2,2,0,0,0,1.3-1.17l.3-.88c.18-.52.49-.52.69,0l.33.82a2,2,0,0,0,1.36,1.08l.29,0a.56.56,0,0,1,.4,1l-.41.57a2.76,2.76,0,0,0-.43,1.79Z"/><ellipse class="cls-8" cx="141.61" cy="255.74" rx="1.04" ry="1.41"/><ellipse class="cls-8" cx="149.56" cy="261.67" rx="2.44" ry="3.26"/><ellipse class="cls-8" cx="155.17" cy="263.53" rx="1.2" ry="1.62"/><path class="cls-8" d="M169.31,262.52c.08.54-.23.76-.7.48l-.06,0a1.68,1.68,0,0,0-1.68.06l-.09.06c-.45.32-.77.13-.71-.42l.05-.43a2.53,2.53,0,0,0-.54-1.74l-.14-.15a.55.55,0,0,1,.32-1,2.07,2.07,0,0,0,1.32-1.15l.13-.35c.19-.52.53-.53.74,0l.14.31a2,2,0,0,0,1.38,1.06c.54.07.71.48.37.92l-.15.19a2.59,2.59,0,0,0-.45,1.77Z"/><path class="cls-10" d="M169.31,262.52c.08.54-.23.76-.7.48l-.06,0a1.68,1.68,0,0,0-1.68.06l-.09.06c-.45.32-.77.13-.71-.42l.05-.43a2.53,2.53,0,0,0-.54-1.74l-.14-.15a.55.55,0,0,1,.32-1,2.07,2.07,0,0,0,1.32-1.15l.13-.35c.19-.52.53-.53.74,0l.14.31a2,2,0,0,0,1.38,1.06c.54.07.71.48.37.92l-.15.19a2.59,2.59,0,0,0-.45,1.77Z"/><ellipse class="cls-8" cx="137.16" cy="264.25" rx="1.74" ry="2.34"/><ellipse class="cls-8" cx="106.46" cy="269.09" rx="1.74" ry="2.34"/><ellipse class="cls-8" cx="110.99" cy="241.95" rx="0.5" ry="0.67"/><ellipse class="cls-8" cx="101.95" cy="224.28" rx="0.5" ry="0.67"/><ellipse class="cls-8" cx="118.94" cy="231.85" rx="0.5" ry="0.67" transform="translate(-0.87 0.45) rotate(-0.21)"/><ellipse class="cls-8" cx="90.26" cy="227.22" rx="0.5" ry="0.67" transform="translate(-0.85 0.34) rotate(-0.21)"/><ellipse class="cls-8" cx="81.85" cy="233.54" rx="0.5" ry="0.67"/><ellipse class="cls-8" cx="113.56" cy="264.37" rx="0.73" ry="0.99"/><ellipse class="cls-8" cx="117.53" cy="271.21" rx="0.5" ry="0.67"/><ellipse class="cls-8" cx="124.39" cy="281.31" rx="0.5" ry="0.67"/><ellipse class="cls-8" cx="110.37" cy="277.73" rx="0.5" ry="0.67"/><ellipse class="cls-8" cx="94.16" cy="263.42" rx="0.5" ry="0.67"/><ellipse class="cls-8" cx="92.44" cy="272.26" rx="0.5" ry="0.67"/><ellipse class="cls-8" cx="97.59" cy="281.94" rx="0.5" ry="0.67"/><ellipse class="cls-8" cx="83.25" cy="286.57" rx="0.5" ry="0.67" transform="translate(-1.16 0.34) rotate(-0.23)"/><ellipse class="cls-8" cx="98.52" cy="211.44" rx="0.5" ry="0.67" transform="translate(-0.79 0.37) rotate(-0.21)"/><ellipse class="cls-8" cx="118.94" cy="205.97" rx="0.5" ry="0.67" transform="translate(-0.77 0.45) rotate(-0.21)"/><ellipse class="cls-8" cx="174.57" cy="277.1" rx="0.5" ry="0.67" transform="translate(-1.04 0.66) rotate(-0.21)"/><ellipse class="cls-8" cx="126.42" cy="222.59" rx="0.5" ry="0.67" transform="translate(-0.83 0.48) rotate(-0.21)"/><ellipse class="cls-8" cx="137.72" cy="228.59" rx="0.89" ry="1.2"/><ellipse class="cls-8" cx="144.81" cy="213.75" rx="0.5" ry="0.67" transform="translate(-0.8 0.54) rotate(-0.21)"/><ellipse class="cls-8" cx="151.98" cy="287.62" rx="0.5" ry="0.67" transform="translate(-1.08 0.57) rotate(-0.21)"/><ellipse class="cls-8" cx="160.39" cy="222.59" rx="0.5" ry="0.67" transform="translate(-0.83 0.6) rotate(-0.21)"/><text class="cls-12" transform="matrix(0.56, -0.49, 0.66, 0.75, 87.38, 178.93)">T</text><text class="cls-12" transform="translate(91.25 175.58) rotate(-37.32) scale(0.74 1)"> </text><text class="cls-12" transform="matrix(0.62, -0.41, 0.55, 0.83, 93.79, 173.61)">E</text><text class="cls-12" transform="translate(97.75 171.01) rotate(-29.42) scale(0.74 1)"> </text><text class="cls-12" transform="translate(100.53 169.41) rotate(-25.21) scale(0.74 1)">L</text><text class="cls-12" transform="translate(104.81 167.41) rotate(-20.83) scale(0.74 1)"> </text><text class="cls-12" transform="translate(107.78 166.24) rotate(-16.31) scale(0.74 1)">E</text><text class="cls-12" transform="translate(112.31 164.94) rotate(-11.69) scale(0.74 1)"> </text><text class="cls-12" transform="translate(115.4 164.25) rotate(-6.69) scale(0.74 1)">S</text><text class="cls-12" transform="translate(120.64 163.67) rotate(-1.65) scale(0.74 1)"> </text><text class="cls-12" transform="translate(123.78 163.51) rotate(3.51) scale(0.74 1)">C</text><text class="cls-12" transform="matrix(0.73, 0.11, -0.15, 0.99, 129.35, 163.9)"> </text><text class="cls-12" transform="translate(132.48 164.31) rotate(14.1) scale(0.74 1)">O</text><text class="cls-12" transform="matrix(0.7, 0.25, -0.33, 0.94, 138.24, 165.81)"> </text><text class="cls-12" transform="matrix(0.68, 0.3, -0.41, 0.91, 141.27, 166.83)">P</text><text class="cls-12" transform="translate(145.75 168.85) rotate(28.26) scale(0.74 1)"> </text><text class="cls-12" transform="translate(148.59 170.34) rotate(32.34) scale(0.74 1)">E</text><text class="cls-13" transform="translate(99.45 400.02) scale(0.74 1)"><tspan class="cls-14">L</tspan><tspan x="7.75" y="0">oading...</tspan></text><image width="1297" height="2591" transform="translate(32 69.25) scale(0.15 0.16)" xlink:href="../../../../Downloads/61-610723_all-new-pocket-iphone-x-frame-png-hd.png"/><image width="360" height="640" transform="translate(249.29 87.24) scale(0.34 0.41)" xlink:href="../../../../Downloads/Galaxy.png"/><image width="360" height="640" transform="translate(539.65 88.25) scale(0.33 0.41)" xlink:href="../../../../Downloads/MainPage(Weekly%20Calendar).png"/><image width="360" height="640" transform="translate(682.76 88.82) scale(0.35 0.4)" xlink:href="../../../../Downloads/DuringTask%20View_1%20%E2%80%93%202.png"/><image width="360" height="640" transform="translate(393.9 87.24) scale(0.34 0.41)" xlink:href="../../../../Downloads/start.png"/><text class="cls-15" transform="translate(249.29 405.6) scale(0.81 1)"><tspan class="cls-16">T</tspan><tspan x="10.79" y="0">elescope App Design</tspan><tspan x="0" y="27.96" xml:space="preserve"> - </tspan><tspan class="cls-17" x="19.87" y="27.96">Night sky </tspan><tspan class="cls-18" x="112.29" y="27.96">t</tspan><tspan class="cls-17" x="119.3" y="27.96">hemed vector art designed using Adobe I</tspan><tspan class="cls-19" x="507.38" y="27.96">l</tspan><tspan class="cls-17" x="512.43" y="27.96">lustrator</tspan><tspan class="cls-17"><tspan x="0" y="53.12" xml:space="preserve"> - featu</tspan><tspan class="cls-20" x="65.27" y="53.12">r</tspan><tspan x="71.87" y="53.12">es modern ci</tspan><tspan class="cls-20" x="191.91" y="53.12">r</tspan><tspan x="198.52" y="53.12">cular weekly calendar layout based o</tspan><tspan class="cls-21" x="539.57" y="53.12">f</tspan><tspan x="545.4" y="53.12">f moon phase</tspan><tspan x="0" y="78.28" xml:space="preserve"> - app wi</tspan><tspan class="cls-20" x="79.63" y="78.28">r</tspan><tspan x="86.24" y="78.28">eframe c</tspan><tspan class="cls-20" x="167.02" y="78.28">r</tspan><tspan x="173.63" y="78.28">eated using Adobe XD available upon </tspan><tspan class="cls-20" x="533.36" y="78.28">r</tspan><tspan x="539.97" y="78.28">equest </tspan></tspan></text><text class="cls-22" transform="translate(79.74 513.94) scale(0.81 1)">Splash Sc<tspan class="cls-23" x="58.78" y="0">r</tspan><tspan x="63.18" y="0">een</tspan></text><text class="cls-24" transform="translate(539.65 83.23) scale(1.04 1)">W<tspan class="cls-25" x="11.11" y="0" xml:space="preserve">eekly  Calendar</tspan></text><text class="cls-26" transform="translate(393.9 83.23) scale(1.04 1)">Daily <tspan class="cls-27" x="29.56" y="0">V</tspan><tspan x="36.74" y="0">iew</tspan></text><text class="cls-26" transform="translate(249.53 83.23) scale(1.04 1)">Galaxy Sc<tspan class="cls-28" x="51.56" y="0">r</tspan><tspan x="55.34" y="0">een</tspan></text><text class="cls-26" transform="translate(682.76 83.23) scale(1.04 1)">Star G<tspan class="cls-29" x="33.35" y="0">r</tspan><tspan class="cls-30" x="37.13" y="0">own</tspan></text></svg>